<svg width="15" height="15" viewBox="0 0 15 15" fill="none" xmlns="http://www.w3.org/2000/svg">
<g clip-path="url(#clip0)">
<path d="M7.5 3.28125C7.5 3.15693 7.45061 3.0377 7.36271 2.94979C7.2748 2.86189 7.15557 2.8125 7.03125 2.8125C6.90693 2.8125 6.7877 2.86189 6.69979 2.94979C6.61189 3.0377 6.5625 3.15693 6.5625 3.28125V8.4375C6.56253 8.52012 6.58439 8.60127 6.62588 8.67273C6.66737 8.74418 6.72701 8.80339 6.79875 8.84438L10.08 10.7194C10.1877 10.7776 10.3139 10.7913 10.4315 10.7577C10.5492 10.7241 10.6491 10.6458 10.7099 10.5396C10.7706 10.4333 10.7873 10.3075 10.7565 10.189C10.7257 10.0706 10.6498 9.96885 10.545 9.90563L7.5 8.16563V3.28125Z" fill="#004D71"/>
<path d="M7.5 15C9.48912 15 11.3968 14.2098 12.8033 12.8033C14.2098 11.3968 15 9.48912 15 7.5C15 5.51088 14.2098 3.60322 12.8033 2.1967C11.3968 0.790176 9.48912 0 7.5 0C5.51088 0 3.60322 0.790176 2.1967 2.1967C0.790176 3.60322 0 5.51088 0 7.5C0 9.48912 0.790176 11.3968 2.1967 12.8033C3.60322 14.2098 5.51088 15 7.5 15ZM14.0625 7.5C14.0625 9.24048 13.3711 10.9097 12.1404 12.1404C10.9097 13.3711 9.24048 14.0625 7.5 14.0625C5.75952 14.0625 4.09032 13.3711 2.85961 12.1404C1.6289 10.9097 0.9375 9.24048 0.9375 7.5C0.9375 5.75952 1.6289 4.09032 2.85961 2.85961C4.09032 1.6289 5.75952 0.9375 7.5 0.9375C9.24048 0.9375 10.9097 1.6289 12.1404 2.85961C13.3711 4.09032 14.0625 5.75952 14.0625 7.5Z" fill="#004D71"/>
</g>
<defs>
<clipPath id="clip0">
<rect width="15" height="15" fill="white"/>
</clipPath>
</defs>
</svg>
