<svg width="20" height="20" viewBox="0 0 20 20" fill="none" xmlns="http://www.w3.org/2000/svg">
<path d="M20 9.41177H17.6247C17.3382 5.6631 14.3369 2.66184 10.5882 2.37533V0H9.41177V2.37533C5.6631 2.66184 2.66184 5.6631 2.37533 9.41177H0V10.5882H2.37533C2.66184 14.3369 5.6631 17.3382 9.41177 17.6247V20H10.5882V17.6247C14.3369 17.3382 17.3382 14.3369 17.6247 10.5882H20V9.41177ZM16.4435 9.41177H13.4801C13.2315 7.93604 12.064 6.76855 10.5882 6.51988V3.55643C13.6876 3.8371 16.1629 6.31235 16.4435 9.41177ZM10 12.3529C8.70259 12.3529 7.64706 11.2974 7.64706 10C7.64706 8.70259 8.70259 7.64706 10 7.64706C11.2974 7.64706 12.3529 8.70259 12.3529 10C12.3529 11.2974 11.2974 12.3529 10 12.3529ZM9.41177 3.55643V6.51984C7.93604 6.76851 6.76855 7.936 6.51988 9.41173H3.55643C3.8371 6.31235 6.31235 3.8371 9.41177 3.55643ZM3.55643 10.5882H6.51984C6.76851 12.064 7.936 13.2315 9.41173 13.4801V16.4435C6.31235 16.1629 3.8371 13.6876 3.55643 10.5882ZM10.5882 16.4435V13.4801C12.064 13.2315 13.2315 12.064 13.4801 10.5882H16.4435C16.1629 13.6876 13.6876 16.1629 10.5882 16.4435Z" fill="white"/>
<path d="M9.41162 9.41174H10.5881V10.5882H9.41162V9.41174Z" fill="white"/>
<circle cx="10" cy="10" r="3" fill="white"/>
</svg>
