<svg width="500" height="500" viewBox="0 0 500 500" fill="none" xmlns="http://www.w3.org/2000/svg">
<g clip-path="url(#clip0)">
<path d="M97.9495 72.3C154.1 64.45 172.2 97.2 215.8 83.7C250.75 72.85 248 49.1 280.15 36.25C334.25 14.65 402.8 57.7 440.65 104.6C475 147.2 512.35 228.1 488.3 285.9C471.3 326.8 435.5 327.55 407.2 390.3C389.35 429.9 400.5 436.55 387.15 452.95C341.65 508.75 237.05 401.85 118.85 450.1C101.65 457.15 79.3495 469.4 55.2995 459.6C28.6995 448.75 7.14954 413.65 4.29954 377.95C-0.950463 311.6 62.3995 292.5 60.3495 226.05C58.6495 169.9 12.2995 147.7 24.3995 113.1C35.5995 81.05 84.3495 74.2 97.9495 72.3Z" fill="#DEE8F0"/>
<path d="M332.5 472.5C332.5 481.65 332.5 490.85 332.5 500H352.5L355 473.5C347.5 473.15 340 472.85 332.5 472.5Z" fill="#EA9557"/>
<path d="M371.3 128.45C374.45 136.25 371.85 138.85 379.65 153.3C383.5 160.45 391.65 162.8 389.2 166.1C384.6 172.35 375.05 185.05 367.6 190.55C352.2 201.85 318.3 173.4 318.6 162.85C319.55 129.45 315.75 131 327.6 118.7C341.45 104.15 364.2 110.85 371.3 128.45Z" fill="#FBB47D"/>
<path d="M354.4 157.75C360.1 159.85 366.8 161.2 370.95 157.9C375 154.7 375.05 148.4 377.15 148.45C378.8 148.5 378.7 152.45 382.4 156.85C386 161.15 388.9 160.7 389.7 163.5C390 164.55 390.25 166.9 383.5 175.05C378.05 181.65 375.3 184.95 372.2 186.25C361.85 190.7 349.6 181.25 348.35 180.25C350.35 172.8 352.35 165.25 354.4 157.75Z" fill="white"/>
<path d="M366.949 120.6C366.649 122.55 364.399 135.05 352.849 142.05C345.399 146.55 337.999 146.4 335.099 146.15C333.049 148.7 328.999 154.4 327.749 162.8C326.699 169.55 327.949 175.05 328.849 178.05C325.499 175.65 314.949 167.4 311.899 153.3C310.199 145.4 311.449 138.45 312.049 135.45C312.849 131.45 313.699 127 316.949 122.2C317.699 121.1 321.099 116.15 327.399 112.7C336.149 107.85 348.499 106.75 358.399 112.65C362.549 115.2 365.299 118.4 366.949 120.6Z" fill="#1A325D"/>
<path d="M324.499 117.55C323.949 116.4 321.099 110.85 315.149 109.2C307.549 107.1 297.899 112.2 296.249 121C294.599 129.65 301.799 136.5 307.899 138.55C308.649 138.8 315.549 141 319.549 137.5C320.099 137 321.449 135.65 323.249 126.05C323.849 122.6 324.249 119.65 324.499 117.55Z" fill="#1A325D"/>
<path d="M353.95 158.15C346.5 155.55 338.35 152.3 329.8 148.15C323.4 145.05 317.55 141.8 312.25 138.65C316.3 143.3 322 149.9 326.05 154.6C333.5 163.2 340.9 171.75 348.3 180.35C350.25 172.95 352.1 165.55 353.95 158.15Z" stroke="white" stroke-miterlimit="10"/>
<path d="M328.5 177.8C329.3 181.45 330.1 187.6 328.5 194.8C327.6 198.7 326.25 201.9 325 204.3C335.5 207.3 346 210.3 356.5 213.3C355.35 211.5 353.7 208.45 353 204.3C352.05 198.85 353.25 194.45 354 192.3C350.65 190.3 347.35 188.3 344 186.3C338.85 183.45 333.65 180.65 328.5 177.8Z" fill="#FBB47D"/>
<path d="M355.349 259.5C350.699 248.55 345.999 240 342.449 234.1C332.899 218.2 328.899 216.5 326.049 216.1C320.449 215.25 313.599 218.55 310.899 223.8C305.899 233.45 315.999 247.35 325.649 260.6C333.449 271.35 337.349 276.7 344.649 280.15C347.849 281.65 354.499 284.15 382.199 280.15C390.399 278.95 401.399 277.1 414.299 274C416.399 269.5 418.449 265.05 420.549 260.55C407.899 262.35 392.799 263.3 375.849 262.1C368.499 261.5 361.699 260.6 355.349 259.5Z" fill="#FBB47D"/>
<path d="M363 282.5C371.1 281.5 379.45 280.35 388 279C396.8 277.6 405.3 276.1 413.5 274.5C414.15 273.65 414.85 272.85 415.5 272C405.9 274 395 275.7 383 276.5C376.1 276.95 369.6 277.1 363.5 277C363.35 278.85 363.15 280.65 363 282.5Z" fill="#EA9557"/>
<path d="M366.499 271.8C361.099 286.55 363.699 303.35 368.499 336.8C371.749 359.4 375.049 365.75 381.999 394.8C386.099 411.95 391.499 437.05 395.999 468.5C382.349 471.1 365.999 473.15 347.499 473.5C325.799 473.9 306.849 471.75 291.499 469C291.149 455.5 291.049 435.15 292.999 410.5C297.199 357.25 304.999 357.3 306.499 321C308.399 275.05 297.349 239.55 313.649 214C315.549 211 319.149 206.3 324.999 204.3C338.799 199.6 356.899 212.75 364.999 227.3C365.799 228.7 369.399 235.35 370.499 244.8C372.049 257.9 367.849 268.15 366.499 271.8Z" fill="#28478A"/>
<path d="M319 472.5C319 481.65 319 490.85 319 500H339L341.5 473.5C334 473.15 326.5 472.85 319 472.5Z" fill="#FBB47D"/>
<path d="M304.499 256.5C304.299 260.45 304.499 266.8 306.999 274C308.049 276.95 309.699 281.7 313.499 286C317.199 290.15 321.399 292.2 330.999 295.5C347.299 301.1 363.849 305.1 364 304.5C364.049 304.3 362.099 303.75 354.499 301C343.499 297 337.999 295 334.999 293.5C322.299 287.1 314.849 278.5 314.499 275C314.449 274.65 314.399 273.35 313.499 272.5C312.299 271.4 310.899 272.2 309.499 271.5C307.849 270.65 307.699 268.45 306.999 265C306.549 263 305.849 260.05 304.499 256.5Z" fill="#24375F"/>
<path d="M337.4 269.3C338.2 257.45 337.9 247.65 337.4 240.8C336.1 222.3 333.25 218.95 330.9 217.3C326.25 214 318.7 213.9 313.9 217.3C305.05 223.65 307.8 240.6 310.4 256.8C312.5 269.9 313.55 276.45 318.5 282.8C320.7 285.6 325.5 290.85 352 299.8C359.85 302.45 370.5 305.75 383.4 308.8C384.55 304.8 385.75 300.8 386.9 296.8C377.1 292.95 366.05 287.8 354.5 280.8C348.2 277 342.5 273.1 337.4 269.3Z" fill="#FBB47D"/>
<path d="M318.499 213.3C309.099 215.5 305.349 225.9 304.499 228.3C302.749 233.1 302.999 237.5 303.499 246.3C303.899 253.4 304.949 257.95 305.999 261.8C307.399 266.85 307.949 269.45 309.499 270.8C313.499 274.2 320.199 272.45 328.499 270.3C335.099 268.6 338.499 268 340.499 265.8C342.949 263.1 343.549 259.45 342.499 248.8C340.749 231 339.899 222.05 333.999 217.3C333.399 216.8 326.499 211.45 318.499 213.3Z" fill="#F2F2F2"/>
<path d="M324.5 204.5C327.3 206.75 331.5 210.5 335.5 216C339.85 222 340.55 225.3 344 227C346.95 228.45 352.2 228.85 362 222.5C354.05 226.45 349.3 225.8 346.5 224.5C342.2 222.5 341.4 218.6 336 213C331.8 208.65 327.45 206 324.5 204.5Z" fill="#24375F"/>
<path d="M324.5 204.5C325.4 204.05 326.75 203.45 328.5 203C338.65 200.35 349.95 205.8 356.5 213.3C358.1 215.15 360.3 218.15 362 222.5C354.55 226.75 349.9 226.4 347 225.3C342.9 223.75 341.55 220.35 336.5 214.8C331.95 209.85 327.55 206.5 324.5 204.5Z" fill="#F2F2F2"/>
<path d="M446.75 215.3C431.75 239.1 416.75 262.95 401.75 286.75C416.25 293.85 430.75 300.95 445.25 308.05C460.4 283.9 475.6 259.7 490.75 235.55C476.1 228.8 461.4 222.05 446.75 215.3Z" fill="white" stroke="white" stroke-miterlimit="10"/>
<path d="M386.999 296.8C392.699 298.3 396.649 300.25 397.849 301.3C398.649 302 399.099 302.55 399.099 302.55C400.049 303.7 400.199 304.45 401.849 305.8C405.049 308.35 409.199 309.3 413.849 310.3C416.799 310.95 419.499 311.25 423.199 312.8C425.049 313.6 426.649 314.25 426.549 314.8C426.199 316.15 414.799 315.95 405.899 314.8C400.099 314.05 391.899 312.5 382.549 308.8C383.999 304.8 385.499 300.8 386.999 296.8Z" fill="#FBB47D"/>
<path d="M373 304C379.9 306.4 383.85 308.05 391.5 310C400.1 312.2 407.15 313.2 409.5 313.5C419.5 314.8 426 314.65 426 315C426 315.35 418.85 315.95 411 315.5C402.6 315 396.2 313.45 386 310.5C372.15 306.5 369.1 305.15 350 299C331.2 292.95 325.4 291.45 320 285C316.2 280.5 314.4 275.75 313.5 272.5C314.4 274.05 315.85 276.4 318 279C318 279 321.65 283.45 326.5 287C335.85 293.9 351 296.35 373 304Z" fill="#EA9557"/>
<path d="M354 193C353.65 194 353.3 195.2 353.05 196.5C352.45 199.7 352.65 202.5 353 204.5C352.25 202.6 350.95 199.9 348.55 197.5C346.3 195.3 344.15 194.4 342.55 193.5C339.55 191.85 335.65 188.8 332 182.5C335.1 184.75 339.1 187.3 344.05 189.5C347.65 191.1 351.05 192.25 354 193Z" fill="#EA9557"/>
<path d="M128.151 134.1C124.651 141.75 127.101 144.45 118.601 158.5C114.401 165.45 106.151 167.4 108.401 170.8C112.701 177.25 121.601 190.45 128.751 196.25C143.551 208.3 178.801 181.55 179.051 171C179.751 137.6 183.451 139.35 172.251 126.45C159.151 111.35 136.051 116.9 128.151 134.1Z" fill="#FBB47D"/>
<path d="M142.2 162.85C134.85 165 128.9 165.15 125.65 162C122.4 158.85 122.95 153.4 120.8 153.1C119.1 152.9 118.5 156.25 114.3 160.25C110 164.35 107.5 163.85 106.6 166.45C106.25 167.5 105.85 169.8 112.05 178.35C117.1 185.25 119.65 188.7 122.65 190.25C132.7 195.3 145.55 186.6 146.85 185.7C145.85 180.8 144.9 175.95 143.9 171.05C143.3 168.35 142.75 165.6 142.2 162.85Z" fill="white"/>
<path d="M129.852 130.7C133.202 136.35 138.852 138.6 146.852 142.15C159.202 147.65 165.002 145.8 168.052 151.05C170.102 154.6 168.402 157.05 168.452 166.35C168.502 173.8 169.652 179.8 170.552 183.75C174.252 180.65 179.552 175.45 183.702 167.6C186.952 161.45 194.502 147.3 188.352 132.8C184.802 124.45 177.452 117.6 169.252 114.95C164.002 113.3 163.352 114.95 151.002 114.1C136.152 113.05 132.002 110.3 128.952 113.25C125.252 116.9 126.652 125.35 129.852 130.7Z" fill="#1A325D"/>
<path d="M142.15 163C147 163.9 154.25 164.65 162.75 163.2C176.3 160.9 185.7 154.35 190.2 150.75C185.95 157 179.05 165.55 168.7 173.4C160.65 179.5 152.9 183.4 146.85 185.9C145.25 178.25 143.7 170.6 142.15 163Z" stroke="white" stroke-miterlimit="10"/>
<path d="M170.5 184C169.7 187.65 168.9 193.8 170.5 201C171.4 204.9 172.75 208.1 174 210.5C163.5 213.5 153 216.5 142.5 219.5C143.65 217.7 145.3 214.65 146 210.5C146.95 205.05 145.75 200.65 145 198.5C148.35 196.5 151.65 194.5 155 192.5C160.15 189.65 165.35 186.85 170.5 184Z" fill="#FBB47D"/>
<path d="M149.5 205.5C151.35 203.3 152.8 203.8 158 201.5C166.6 197.75 169.65 193.25 171.5 194.5C173.2 195.6 170.8 199.25 173 204.5C174.45 208 176.5 208.65 176.5 210C176.5 212.7 168.75 216.2 140 220.5C141.5 219.65 143.8 218.15 145.5 215.5C148.1 211.45 147 208.55 149.5 205.5Z" fill="black"/>
<path d="M149.5 205.5C151.35 203.3 152.8 203.8 158 201.5C166.6 197.75 169.65 193.25 171.5 194.5C173.2 195.6 170.8 199.25 173 204.5C174.45 208 176.5 208.65 176.5 210C176.5 212.7 168.75 216.2 140 220.5C141.5 219.65 143.8 218.15 145.5 215.5C148.1 211.45 147 208.55 149.5 205.5Z" fill="#28478A"/>
<path d="M60.8008 214.35C66.1008 230.2 71.4508 246.05 76.7508 261.9C62.2008 275.2 47.7008 288.5 33.1508 301.8C27.5508 285.4 21.9508 269.05 16.3008 252.65C31.1508 239.9 45.9508 227.15 60.8008 214.35Z" fill="white" stroke="#CCCCCC" stroke-miterlimit="10"/>
<path d="M109 307C105.25 309.05 99.5 311.6 92.15 312.45C82.7 313.55 73 311.6 73 310.1C73 309.25 76.05 308.5 81.5 307.15C87 305.8 88.9 305.85 90.7 305.05C91.15 304.85 91.5 304.6 92.15 304.2C95.55 302.1 97.65 300.2 98.5 299.45C100.2 298.05 103.05 296.35 108 295.45C108.35 299.35 108.65 303.15 109 307Z" fill="#FBB47D"/>
<path d="M74 311C78.35 312.3 87.15 314.25 97.5 311.5C102.35 310.2 106.2 308.25 109 306.5C108.85 305.35 108.65 304.15 108.5 303C105.65 305.1 101.45 307.7 96 309.5C86.6 312.6 78.35 311.8 74 311Z" fill="#EA9557"/>
<path d="M159.05 258.6C160.95 247.25 163.5 238.2 165.55 231.85C170.25 217.2 173.5 213.3 175.95 211.85C176.15 211.75 176.55 211.3 177.1 211.3C179.55 211.35 181.1 219.4 182.45 226C187.65 252.05 188 251.05 187.75 253.15C187.65 253.85 185.55 270.2 172.3 279.2C165.4 283.85 155.85 284.3 137 285C126.5 285.4 117.85 285.2 112 285C112.35 280.85 112.65 276.65 113 272.5C128.35 267.85 143.7 263.25 159.05 258.6Z" fill="#24375F"/>
<path d="M175 340C165 393.35 155 446.65 145 500C123.85 500 102.65 500 81.5 500C94.65 445.85 107.85 391.65 121 337.5C139 338.35 157 339.15 175 340Z" fill="#333333"/>
<path d="M192.5 329C192.65 386 192.85 443 193 500C175.5 500 158 500 140.5 500C139.85 443.15 139.15 386.35 138.5 329.5C156.5 329.35 174.5 329.15 192.5 329Z" fill="#4D4D4D"/>
<path d="M123 268C121.95 287.6 127.55 294.4 124.5 316C123.1 326.05 120.5 334.1 118.5 339.5C126 342.15 135.45 344.75 146.5 346C166.2 348.25 182.65 345.35 193.5 342.5C194.4 323 195.6 307.15 196.5 296.5C200.3 251.95 204.35 234.15 192.7 219.65C191.05 217.55 185.1 210.4 175.25 208C159.3 204.15 145.35 215.45 141.5 219C124.95 234 123.6 257.15 123 268Z" fill="#28478A"/>
<path d="M125 311C137.3 309.3 147.15 306.4 154 304C169.5 298.55 180.05 294.85 186 285C188.65 280.6 186 282.3 191.5 263.5C194.45 253.45 196.95 247.2 197 237.5C197.05 233.95 196.75 231 196.5 229C194.5 233.8 191.6 241.2 189 250.5C182.95 272.05 184.7 281.2 176.5 289C173.15 292.2 167.7 294 157 297.5C144.1 301.7 133.1 304.1 125.5 305.5C125.35 307.35 125.15 309.15 125 311Z" fill="#24375F"/>
<path d="M161.202 271.9C162.202 258.95 164.052 248.45 165.602 241.1C169.752 221.3 173.102 218.1 175.702 216.65C180.852 213.75 188.402 214.7 192.652 219.1C200.052 226.8 195.852 242.15 190.002 262.25C186.552 274.2 184.702 280.25 180.002 285.5C175.852 290.15 170.202 293.9 150.002 299.5C139.902 302.3 126.102 305.6 109.252 307.95C108.702 303.45 108.152 299 107.602 294.5C125.452 286.95 143.302 279.4 161.202 271.9Z" fill="#28478A"/>
<path d="M110.4 267.35C97.3504 281.1 84.2504 294.85 71.2004 308.65C58.5004 306.4 45.8504 304.1 33.1504 301.85L76.7504 261.95C87.9504 263.7 99.2004 265.55 110.4 267.35Z" fill="white" stroke="#CCCCCC" stroke-miterlimit="10"/>
<path d="M92 286.5C99.15 279.5 100.6 276.85 100 276C99.45 275.25 97.15 275.8 95.5 274C95.2 273.7 94.9 273.35 95 273C95.25 272.2 97.7 272.2 101.5 272.5C104.3 272.7 108.25 273.15 113 274C112.65 277 112.35 280 112 283C105.35 284.15 98.65 285.35 92 286.5Z" fill="#FBB47D"/>
<path d="M61.75 217.25C66.4 231.25 71.1 245.25 75.75 259.25C61.25 272.4 46.75 285.6 32.25 298.75C27.4 284.25 22.6 269.75 17.75 255.25C32.4 242.6 47.1 229.9 61.75 217.25Z" fill="#E6E6E6"/>
<path d="M145 198.5C145.35 199.5 145.75 200.7 146 202C146.5 204.5 146.6 206.75 146.5 208.5C147.25 207 148.5 204.95 150.5 203C152.95 200.65 155.35 199.55 156.5 199C164.5 195.05 170 186.55 169.5 186C169.1 185.6 164.1 190.8 155 195C151 196.85 147.5 197.9 145 198.5Z" fill="#EA9557"/>
<path d="M173 217C176.9 214.5 181.35 214.1 181.5 214.5C181.6 214.8 179.55 215.3 177 217C173.05 219.65 170.95 223.05 170.1 224.55C167.25 229.35 166.75 234 166.5 236C165.6 244.2 163.65 256.25 161 272C148.65 277.35 136.35 282.65 124 288C126.55 285.95 130.45 283.05 135.5 280C148.35 272.3 152.45 273.65 156.5 268.5C157.9 266.75 157.7 266.3 161 243.5C161.6 239.3 163.15 229.2 168 222C168.9 220.65 170.45 218.6 173 217Z" fill="#24375F"/>
<path d="M92 286.5C95.15 284.35 97.45 282.4 99 281C100.15 279.95 100.8 279.25 102 278.5C104.55 276.9 107.15 276.55 109 276.5C106 276.35 103 276.15 100 276C100.05 276.25 100.05 276.6 100 277C99.75 278.6 98.5 279.6 98 280C96.6 281.15 94.65 283.2 92 286.5Z" fill="#EA9557"/>
<path d="M228 216.5C234.3 215.9 241.15 215.5 248.5 215.5C256.45 215.45 263.8 215.85 270.5 216.5C271.65 220 272.85 223.5 274 227C258.65 226.5 243.35 226 228 225.5C228 222.5 228 219.5 228 216.5Z" fill="#24375F"/>
<path d="M235.501 203.95C236.601 208.1 237.151 213.4 235.001 218.45C231.451 226.7 222.751 227 222.501 231.45C222.201 237.3 236.451 244.8 250.501 244.95C264.201 245.1 278.201 238.3 278.001 232.95C277.801 228.2 266.251 228.15 262.501 218.95C260.151 213.2 261.651 207.2 263.001 203.45C253.851 203.65 244.651 203.8 235.501 203.95Z" fill="#FBB47D"/>
<path d="M236.5 208.5C237.5 209.4 238.85 210.6 240.5 212C246.35 217 247.35 217.45 248.5 217.5C250.1 217.55 251.75 216.35 255 214C257.65 212.1 259.65 210.3 261 209C261.5 207.65 262 206.35 262.5 205C253.5 204.85 244.5 204.65 235.5 204.5C235.85 205.85 236.15 207.15 236.5 208.5Z" fill="#EA9557"/>
<path d="M216.85 137C207 153.8 214.9 171.9 216.85 176.05C218.75 180.05 232.2 210.6 249.1 210.45C264.95 210.3 276.8 185.2 280.5 177.75C282.35 174.05 294.3 147.45 279.65 131.5C265.45 116 229.15 116.05 216.85 137Z" fill="#FBB47D"/>
<path d="M214.301 170.5C217.901 170.55 223.451 170.2 229.601 167.95C240.401 164.05 243.051 158 249.951 158.6C255.601 159.1 256.551 163.3 263.951 166.65C271.451 170.1 279.051 169.7 284.301 168.75C283.001 173.1 281.001 178.35 277.951 184.05C275.001 189.45 271.851 193.85 269.051 197.2C266.251 199.05 259.601 202.8 250.401 203.15C239.651 203.5 231.901 199 229.201 197.2C226.401 194.3 222.951 190.1 219.851 184.45C216.901 179.2 215.251 174.3 214.301 170.5Z" fill="white"/>
<path d="M212.6 162.85C214.45 163 214.6 151.8 222.8 140.35C225 137.3 227.2 135 228.75 133.55C234.85 138.35 240.5 141.2 244.45 142.9C252.75 146.45 262.4 150.35 272.05 147.15C276.9 145.55 278.85 143.05 281.4 144.2C286.75 146.55 284.55 160.25 285.65 160.35C286.9 160.45 289.75 153.5 289.65 145.7C289.6 143.4 289.5 138.45 286.95 133.2C280.4 119.85 264.1 117.05 261.5 116.65C259.9 116.4 254.5 116.8 243.7 117.5C233 118.2 230.05 118.75 226.7 120.45C221.1 123.35 218 127.65 216.5 129.8C211.25 137.35 210.75 144.95 210.55 149.3C210.2 155.4 211.1 162.75 212.6 162.85Z" fill="#1A325D"/>
<path d="M219.151 158.45C223.551 150.85 237.701 149.55 242.351 155C244.601 157.65 244.151 161.3 244.101 161.5C243.501 166 239.201 168.4 237.951 169.1C231.451 172.8 220.951 172.05 218.301 166.6C216.601 163.05 218.951 158.85 219.151 158.45Z" stroke="#666666" stroke-miterlimit="10"/>
<path d="M279.852 157C275.452 149.4 261.301 148.1 256.651 153.55C254.401 156.2 254.851 159.85 254.901 160.05C255.501 164.55 259.801 166.95 261.051 167.65C267.551 171.35 278.052 170.6 280.702 165.15C282.452 161.6 280.102 157.4 279.852 157Z" stroke="#666666" stroke-miterlimit="10"/>
<path d="M244.4 159.7H253.95V160.95H244.75L244.4 159.7Z" fill="#808080" stroke="#666666" stroke-miterlimit="10"/>
<path d="M205.5 354C225.15 354 244.85 354 264.5 354C266.5 402.65 268.5 451.35 270.5 500C247.5 500 224.5 500 201.5 500C202.85 451.35 204.15 402.65 205.5 354Z" fill="#4D4D4D"/>
<path d="M249.5 354C266 354.35 282.5 354.65 299 355C304 403.35 309 451.65 314 500C294.65 500 275.35 500 256 500C253.85 451.35 251.65 402.65 249.5 354Z" fill="#4D4D4D"/>
<path d="M228 225.45C231.35 234.6 240.05 240.65 249.5 240.45C258.1 240.3 265.9 235 269.5 226.95C271.25 226.75 273.45 226.6 276 226.95C280.5 227.55 283.95 229.2 286 230.45C283.25 247.05 281.2 267.15 281.5 289.95C281.85 314.8 284.85 336.45 288.5 353.95C260.85 353.95 233.15 353.95 205.5 353.95C208.45 335.8 210.9 316.1 212.5 294.95C214.25 271.9 214.8 250.3 214.5 230.45C219 228.8 223.5 227.15 228 225.45Z" fill="#E6E6E6"/>
<path d="M274.951 226.95C272.251 237.55 269.901 249.8 268.451 263.45C266.451 282.25 266.751 299.05 267.951 312.95C269.601 332.3 271.801 346.6 272.451 350.45C276.101 371.8 278.501 408.1 273.001 473.5C275.501 475.75 282.251 481.1 292.501 482.5C304.651 484.15 313.801 479.1 316.501 477.5C311.651 389.85 308.651 347.75 306.751 325.7C306.501 323.05 305.201 307.75 303.401 286.5C302.051 270.35 300.701 254.15 299.401 238C296.351 235.9 292.501 233.6 287.901 231.5C283.101 229.3 278.651 227.9 274.951 226.95Z" fill="white"/>
<path d="M224.5 226.95C227.2 237.55 229.55 249.8 231 263.45C233.2 284.4 232.25 300.15 231.5 312.95C229.8 341.3 228.4 369.65 226.5 398C225.15 418.05 223.6 446.8 223 482C219 484.15 210.9 487.85 200 488C190.15 488.15 182.55 485.35 178.5 483.5C186.85 391.9 190.75 348.2 192.65 325.7C194.35 306.05 196 286.5 196 286.5C197.35 270.35 198.7 254.15 200 238C203.05 235.9 206.9 233.6 211.5 231.5C216.3 229.3 220.75 227.9 224.5 226.95Z" fill="white"/>
<path d="M222.5 226.95C216 226.65 206.4 227.2 198 232.95C187.3 240.25 185.8 250.9 173.5 276.95C168.85 286.85 164.65 294.65 162 299.45C144.5 314.1 127 328.8 109.5 343.45C117 349.3 124.5 355.1 132 360.95C151.75 347.6 165.55 335 174.5 325.95C181.05 319.3 185.2 314.35 189 308.45C196.95 296.15 199.9 285.5 202 278.45C205.7 266.25 211.8 248.85 222.5 226.95Z" fill="white" stroke="white" stroke-miterlimit="10"/>
<path d="M274 226.95C280.5 226.65 290.1 227.2 298.5 232.95C309.2 240.25 310.7 250.9 323 276.95C327.65 286.85 331.85 294.65 334.5 299.45C352 314.1 369.5 328.8 387 343.45C379.5 349.3 372 355.1 364.5 360.95C344.75 347.6 330.95 335 322 325.95C315.45 319.3 311.3 314.35 307.5 308.45C299.55 296.15 296.6 285.5 294.5 278.45C290.8 266.25 284.7 248.85 274 226.95Z" fill="white" stroke="white" stroke-miterlimit="10"/>
<path d="M384.001 345.45C387.851 348.85 391.301 351.05 393.701 352.45C397.651 354.7 399.851 355.25 403.801 357.95C408.001 360.85 411.201 363 410.951 364.95C410.551 368.1 401.101 369.65 394.101 368.95C390.751 368.6 387.801 367.75 383.451 366.45C378.251 364.9 376.051 363.75 375.451 363.45C371.951 361.6 369.501 359.5 367.951 357.95C373.351 353.8 378.651 349.65 384.001 345.45Z" fill="#FBB47D"/>
<path d="M112.001 344.95C108.151 348.35 104.701 350.55 102.301 351.95C98.3508 354.2 96.1508 354.75 92.2008 357.45C88.0008 360.35 84.8008 362.5 85.0508 364.45C85.4508 367.6 94.9008 369.15 101.901 368.45C105.251 368.1 108.201 367.25 112.551 365.95C117.751 364.4 119.951 363.25 120.551 362.95C124.051 361.1 126.501 359 128.051 357.45C122.651 353.3 117.351 349.15 112.001 344.95Z" fill="#FBB47D"/>
<path d="M97.5 368.5C102.05 368.65 109.65 368.2 118 364.5C122.45 362.5 125.95 360.1 128.5 358C127.5 357.15 126.5 356.35 125.5 355.5C122 357.95 117.65 360.55 112.5 363C106.95 365.6 101.85 367.35 97.5 368.5Z" fill="#EA9557"/>
<path d="M385.5 364.5C393.2 367.3 400.05 368.2 405 368.5C400.75 369.1 393.25 369.55 384.5 367C376.75 364.75 371.25 361.05 368 358.5C368.65 357.85 369.35 357.15 370 356.5C373.75 359.1 378.9 362.1 385.5 364.5Z" fill="#EA9557"/>
<path d="M219.394 286.3C219.394 286.989 219.28 287.622 219.05 288.198C218.82 288.775 218.497 289.271 218.081 289.687C217.665 290.103 217.165 290.426 216.58 290.655C215.995 290.885 215.345 291 214.63 291H211.048V281.601H214.63C215.345 281.601 215.995 281.718 216.58 281.952C217.165 282.182 217.665 282.504 218.081 282.92C218.497 283.332 218.82 283.826 219.05 284.402C219.28 284.979 219.394 285.611 219.394 286.3ZM217.6 286.3C217.6 285.785 217.531 285.323 217.392 284.916C217.258 284.504 217.061 284.158 216.801 283.876C216.545 283.59 216.233 283.371 215.865 283.219C215.501 283.068 215.089 282.992 214.63 282.992H212.803V289.609H214.63C215.089 289.609 215.501 289.533 215.865 289.381C216.233 289.23 216.545 289.013 216.801 288.731C217.061 288.445 217.258 288.099 217.392 287.691C217.531 287.28 217.6 286.816 217.6 286.3ZM224.721 289.589C225.059 289.589 225.36 289.533 225.625 289.42C225.893 289.308 226.119 289.15 226.301 288.946C226.483 288.742 226.621 288.495 226.717 288.205C226.816 287.915 226.866 287.59 226.866 287.23V281.601H228.615V287.23C228.615 287.789 228.524 288.307 228.342 288.783C228.164 289.256 227.906 289.665 227.568 290.012C227.234 290.354 226.827 290.623 226.346 290.818C225.865 291.009 225.323 291.104 224.721 291.104C224.114 291.104 223.571 291.009 223.09 290.818C222.609 290.623 222.199 290.354 221.861 290.012C221.527 289.665 221.27 289.256 221.088 288.783C220.91 288.307 220.821 287.789 220.821 287.23V281.601H222.57V287.223C222.57 287.583 222.617 287.908 222.713 288.198C222.812 288.489 222.953 288.738 223.135 288.946C223.321 289.15 223.547 289.308 223.811 289.42C224.08 289.533 224.383 289.589 224.721 289.589ZM240.779 281.601V291H239.238V284.929C239.238 284.686 239.251 284.424 239.277 284.142L236.437 289.479C236.302 289.735 236.096 289.862 235.819 289.862H235.572C235.295 289.862 235.089 289.735 234.955 289.479L232.082 284.123C232.095 284.266 232.105 284.407 232.114 284.545C232.123 284.684 232.127 284.812 232.127 284.929V291H230.587V281.601H231.906C231.984 281.601 232.051 281.603 232.108 281.607C232.164 281.612 232.214 281.623 232.257 281.64C232.305 281.657 232.346 281.685 232.381 281.724C232.42 281.763 232.456 281.815 232.491 281.88L235.306 287.1C235.379 287.239 235.446 287.382 235.507 287.529C235.572 287.676 235.635 287.828 235.696 287.984C235.756 287.824 235.819 287.67 235.884 287.522C235.949 287.371 236.018 287.226 236.092 287.087L238.868 281.88C238.902 281.815 238.939 281.763 238.978 281.724C239.017 281.685 239.058 281.657 239.102 281.64C239.149 281.623 239.201 281.612 239.258 281.607C239.314 281.603 239.381 281.601 239.459 281.601H240.779ZM247.842 287.451L246.698 284.324C246.641 284.186 246.583 284.021 246.522 283.83C246.461 283.64 246.401 283.434 246.34 283.213C246.284 283.434 246.225 283.642 246.165 283.837C246.104 284.028 246.045 284.194 245.989 284.337L244.852 287.451H247.842ZM250.929 291H249.577C249.425 291 249.302 290.963 249.207 290.889C249.111 290.811 249.04 290.716 248.992 290.603L248.29 288.686H244.397L243.695 290.603C243.66 290.703 243.593 290.794 243.493 290.876C243.393 290.959 243.27 291 243.123 291H241.758L245.456 281.601H247.237L250.929 291ZM256.907 283.31C256.855 283.401 256.799 283.469 256.738 283.512C256.682 283.551 256.61 283.57 256.523 283.57C256.432 283.57 256.333 283.538 256.224 283.473C256.12 283.404 255.995 283.328 255.847 283.245C255.7 283.163 255.527 283.089 255.327 283.024C255.132 282.955 254.901 282.92 254.632 282.92C254.389 282.92 254.177 282.951 253.995 283.011C253.813 283.068 253.659 283.148 253.533 283.252C253.412 283.356 253.321 283.482 253.26 283.629C253.2 283.772 253.169 283.93 253.169 284.103C253.169 284.324 253.23 284.509 253.351 284.656C253.477 284.803 253.642 284.929 253.845 285.033C254.049 285.137 254.281 285.23 254.541 285.312C254.801 285.395 255.067 285.484 255.34 285.579C255.613 285.67 255.88 285.778 256.14 285.904C256.4 286.025 256.632 286.181 256.835 286.372C257.039 286.558 257.202 286.788 257.323 287.061C257.449 287.334 257.511 287.665 257.511 288.055C257.511 288.48 257.438 288.879 257.29 289.251C257.147 289.62 256.935 289.943 256.653 290.22C256.376 290.493 256.036 290.71 255.633 290.87C255.23 291.026 254.768 291.104 254.248 291.104C253.949 291.104 253.655 291.074 253.364 291.013C253.074 290.957 252.795 290.874 252.526 290.766C252.262 290.658 252.012 290.528 251.778 290.376C251.544 290.224 251.336 290.055 251.154 289.869L251.668 289.03C251.711 288.97 251.768 288.92 251.837 288.881C251.906 288.838 251.98 288.816 252.058 288.816C252.166 288.816 252.283 288.861 252.409 288.952C252.535 289.039 252.684 289.137 252.857 289.245C253.031 289.353 253.232 289.453 253.462 289.544C253.696 289.631 253.975 289.674 254.3 289.674C254.799 289.674 255.184 289.557 255.457 289.323C255.73 289.085 255.867 288.744 255.867 288.302C255.867 288.055 255.804 287.854 255.678 287.698C255.557 287.542 255.395 287.412 255.191 287.308C254.987 287.2 254.755 287.109 254.495 287.035C254.235 286.961 253.971 286.881 253.702 286.794C253.434 286.708 253.169 286.604 252.909 286.482C252.649 286.361 252.418 286.203 252.214 286.008C252.01 285.813 251.846 285.57 251.72 285.28C251.599 284.985 251.538 284.623 251.538 284.194C251.538 283.852 251.605 283.518 251.739 283.193C251.878 282.868 252.077 282.58 252.337 282.329C252.597 282.078 252.918 281.876 253.299 281.724C253.681 281.573 254.118 281.497 254.612 281.497C255.167 281.497 255.678 281.584 256.146 281.757C256.614 281.93 257.013 282.173 257.342 282.485L256.907 283.31ZM260.785 285.54H261.195C261.359 285.54 261.496 285.518 261.604 285.475C261.713 285.427 261.806 285.354 261.884 285.254L264.477 281.971C264.586 281.833 264.698 281.737 264.815 281.685C264.937 281.629 265.088 281.601 265.27 281.601H266.778L263.613 285.507C263.426 285.746 263.234 285.915 263.034 286.014C263.177 286.066 263.305 286.14 263.418 286.235C263.535 286.326 263.645 286.448 263.749 286.599L267.012 291H265.472C265.264 291 265.108 290.972 265.004 290.915C264.904 290.855 264.82 290.768 264.75 290.655L262.092 287.184C262.009 287.067 261.914 286.985 261.806 286.938C261.697 286.89 261.541 286.866 261.338 286.866H260.785V291H259.037V281.601H260.785V285.54ZM267.461 290.116C267.461 289.982 267.485 289.854 267.533 289.732C267.585 289.611 267.654 289.507 267.741 289.42C267.828 289.334 267.932 289.264 268.053 289.212C268.174 289.16 268.304 289.134 268.443 289.134C268.582 289.134 268.709 289.16 268.826 289.212C268.948 289.264 269.052 289.334 269.138 289.42C269.229 289.507 269.301 289.611 269.353 289.732C269.405 289.854 269.431 289.982 269.431 290.116C269.431 290.255 269.405 290.385 269.353 290.506C269.301 290.623 269.229 290.725 269.138 290.811C269.052 290.898 268.948 290.965 268.826 291.013C268.709 291.065 268.582 291.091 268.443 291.091C268.304 291.091 268.174 291.065 268.053 291.013C267.932 290.965 267.828 290.898 267.741 290.811C267.654 290.725 267.585 290.623 267.533 290.506C267.485 290.385 267.461 290.255 267.461 290.116ZM212.803 307H211.048V297.601H212.803V307ZM223.254 302.3C223.254 302.989 223.139 303.622 222.909 304.198C222.68 304.775 222.357 305.271 221.941 305.687C221.525 306.103 221.024 306.426 220.439 306.655C219.854 306.885 219.204 307 218.489 307H214.908V297.601H218.489C219.204 297.601 219.854 297.718 220.439 297.952C221.024 298.182 221.525 298.504 221.941 298.92C222.357 299.332 222.68 299.826 222.909 300.402C223.139 300.979 223.254 301.611 223.254 302.3ZM221.46 302.3C221.46 301.785 221.39 301.323 221.252 300.916C221.117 300.504 220.92 300.158 220.66 299.876C220.405 299.59 220.093 299.371 219.724 299.219C219.36 299.068 218.949 298.992 218.489 298.992H216.663V305.609H218.489C218.949 305.609 219.36 305.533 219.724 305.381C220.093 305.23 220.405 305.013 220.66 304.731C220.92 304.445 221.117 304.099 221.252 303.691C221.39 303.28 221.46 302.816 221.46 302.3Z" fill="white"/>
<path d="M219.05 288.198L218.585 288.013L219.05 288.198ZM218.081 289.687L217.728 289.333L218.081 289.687ZM216.58 290.656L216.763 291.121H216.763L216.58 290.656ZM211.048 291H210.548V291.5H211.048V291ZM211.048 281.601V281.101H210.548V281.601H211.048ZM216.58 281.952L216.394 282.416L216.397 282.417L216.58 281.952ZM218.081 282.92L217.728 283.274L217.73 283.276L218.081 282.92ZM219.05 284.402L219.514 284.217H219.514L219.05 284.402ZM217.392 284.916L216.917 285.071L216.919 285.077L217.392 284.916ZM216.801 283.876L216.428 284.209L216.434 284.215L216.801 283.876ZM215.865 283.219L215.673 283.681L215.675 283.682L215.865 283.219ZM212.803 282.992V282.492H212.303V282.992H212.803ZM212.803 289.609H212.303V290.109H212.803V289.609ZM215.865 289.382L215.675 288.919L215.673 288.92L215.865 289.382ZM216.801 288.731L216.431 288.395L216.431 288.395L216.801 288.731ZM217.392 287.691L216.919 287.532L216.918 287.535L217.392 287.691ZM218.894 286.3C218.894 286.933 218.789 287.502 218.585 288.013L219.514 288.384C219.77 287.742 219.894 287.046 219.894 286.3H218.894ZM218.585 288.013C218.38 288.53 218.093 288.968 217.728 289.333L218.435 290.041C218.902 289.574 219.261 289.02 219.514 288.384L218.585 288.013ZM217.728 289.333C217.364 289.698 216.923 289.984 216.397 290.19L216.763 291.121C217.407 290.868 217.967 290.508 218.435 290.041L217.728 289.333ZM216.397 290.19C215.878 290.394 215.291 290.5 214.63 290.5V291.5C215.399 291.5 216.112 291.376 216.763 291.121L216.397 290.19ZM214.63 290.5H211.048V291.5H214.63V290.5ZM211.548 291V281.601H210.548V291H211.548ZM211.048 282.101H214.63V281.101H211.048V282.101ZM214.63 282.101C215.29 282.101 215.876 282.209 216.394 282.416L216.766 281.488C216.114 281.227 215.4 281.101 214.63 281.101V282.101ZM216.397 282.417C216.923 282.624 217.364 282.91 217.728 283.274L218.435 282.567C217.967 282.099 217.407 281.74 216.763 281.487L216.397 282.417ZM217.73 283.276C218.094 283.636 218.38 284.071 218.585 284.588L219.514 284.217C219.261 283.581 218.901 283.028 218.433 282.565L217.73 283.276ZM218.585 284.588C218.789 285.099 218.894 285.668 218.894 286.3H219.894C219.894 285.555 219.77 284.859 219.514 284.217L218.585 284.588ZM218.1 286.3C218.1 285.741 218.025 285.223 217.866 284.755L216.919 285.077C217.037 285.423 217.1 285.829 217.1 286.3H218.1ZM217.868 284.761C217.714 284.29 217.483 283.878 217.168 283.537L216.434 284.215C216.639 284.437 216.802 284.719 216.917 285.071L217.868 284.761ZM217.174 283.543C216.866 283.198 216.491 282.936 216.055 282.757L215.675 283.682C215.976 283.806 216.225 283.982 216.428 284.209L217.174 283.543ZM216.057 282.758C215.623 282.577 215.145 282.492 214.63 282.492V283.492C215.034 283.492 215.379 283.559 215.673 283.681L216.057 282.758ZM214.63 282.492H212.803V283.492H214.63V282.492ZM212.303 282.992V289.609H213.303V282.992H212.303ZM212.803 290.109H214.63V289.109H212.803V290.109ZM214.63 290.109C215.145 290.109 215.623 290.024 216.057 289.843L215.673 288.92C215.379 289.042 215.034 289.109 214.63 289.109V290.109ZM216.055 289.844C216.489 289.665 216.863 289.407 217.171 289.068L216.431 288.395C216.227 288.62 215.978 288.794 215.675 288.919L216.055 289.844ZM217.171 289.068C217.483 288.725 217.713 288.315 217.867 287.848L216.918 287.535C216.803 287.883 216.639 288.166 216.431 288.395L217.171 289.068ZM217.866 287.851C218.025 287.379 218.1 286.861 218.1 286.3H217.1C217.1 286.772 217.037 287.18 216.919 287.532L217.866 287.851ZM225.625 289.42L225.431 288.959L225.429 288.961L225.625 289.42ZM226.301 288.946L226.673 289.279L226.301 288.946ZM226.717 288.205L226.244 288.043L226.242 288.049L226.717 288.205ZM226.866 281.601V281.101H226.366V281.601H226.866ZM228.615 281.601H229.115V281.101H228.615V281.601ZM228.342 288.783L227.874 288.605L227.874 288.607L228.342 288.783ZM227.568 290.012L227.21 289.663L227.21 289.663L227.568 290.012ZM226.346 290.818L226.53 291.283L226.534 291.281L226.346 290.818ZM223.09 290.818L222.902 291.281L222.905 291.283L223.09 290.818ZM221.861 290.012L221.501 290.359L221.505 290.363L221.861 290.012ZM221.088 288.783L220.619 288.958L220.621 288.963L221.088 288.783ZM220.821 281.601V281.101H220.321V281.601H220.821ZM222.57 281.601H223.07V281.101H222.57V281.601ZM222.713 288.198L222.238 288.354L222.24 288.361L222.713 288.198ZM223.135 288.946L222.759 289.275L222.766 289.284L223.135 288.946ZM223.811 289.42L223.615 289.88L223.618 289.882L223.811 289.42ZM224.721 290.09C225.115 290.09 225.484 290.024 225.821 289.88L225.429 288.961C225.236 289.043 225.003 289.09 224.721 289.09V290.09ZM225.818 289.882C226.151 289.742 226.439 289.542 226.673 289.279L225.928 288.613C225.799 288.757 225.636 288.874 225.431 288.959L225.818 289.882ZM226.673 289.279C226.907 289.018 227.077 288.709 227.192 288.361L226.242 288.049C226.165 288.282 226.059 288.466 225.928 288.613L226.673 289.279ZM227.19 288.367C227.31 288.017 227.366 287.636 227.366 287.23H226.366C226.366 287.544 226.323 287.813 226.244 288.043L227.19 288.367ZM227.366 287.23V281.601H226.366V287.23H227.366ZM226.866 282.101H228.615V281.101H226.866V282.101ZM228.115 281.601V287.23H229.115V281.601H228.115ZM228.115 287.23C228.115 287.734 228.033 288.191 227.874 288.605L228.809 288.962C229.014 288.423 229.115 287.844 229.115 287.23H228.115ZM227.874 288.607C227.719 289.018 227.498 289.368 227.21 289.663L227.926 290.361C228.314 289.963 228.609 289.494 228.81 288.96L227.874 288.607ZM227.21 289.663C226.929 289.952 226.581 290.183 226.158 290.355L226.534 291.281C227.073 291.063 227.54 290.757 227.926 290.361L227.21 289.663ZM226.162 290.353C225.748 290.517 225.271 290.604 224.721 290.604V291.604C225.376 291.604 225.982 291.5 226.53 291.283L226.162 290.353ZM224.721 290.604C224.167 290.604 223.687 290.517 223.274 290.353L222.905 291.283C223.454 291.5 224.062 291.604 224.721 291.604V290.604ZM223.277 290.355C222.854 290.183 222.503 289.951 222.217 289.661L221.505 290.363C221.895 290.758 222.363 291.063 222.902 291.281L223.277 290.355ZM222.221 289.665C221.936 289.369 221.713 289.017 221.554 288.604L220.621 288.963C220.826 289.495 221.119 289.962 221.501 290.359L222.221 289.665ZM221.556 288.609C221.401 288.193 221.321 287.735 221.321 287.23H220.321C220.321 287.843 220.419 288.42 220.619 288.958L221.556 288.609ZM221.321 287.23V281.601H220.321V287.23H221.321ZM220.821 282.101H222.57V281.101H220.821V282.101ZM222.07 281.601V287.224H223.07V281.601H222.07ZM222.07 287.224C222.07 287.627 222.123 288.006 222.238 288.354L223.188 288.043C223.111 287.811 223.07 287.539 223.07 287.224H222.07ZM222.24 288.361C222.358 288.706 222.53 289.013 222.759 289.275L223.511 288.617C223.377 288.463 223.266 288.272 223.186 288.036L222.24 288.361ZM222.766 289.284C223.003 289.542 223.288 289.741 223.615 289.88L224.007 288.961C223.806 288.875 223.64 288.757 223.504 288.608L222.766 289.284ZM223.618 289.882C223.957 290.024 224.327 290.09 224.721 290.09V289.09C224.439 289.09 224.203 289.043 224.004 288.959L223.618 289.882ZM240.779 281.601H241.279V281.101H240.779V281.601ZM240.779 291V291.5H241.279V291H240.779ZM239.238 291H238.738V291.5H239.238V291ZM239.277 284.142L239.775 284.188L240.003 281.714L238.836 283.908L239.277 284.142ZM236.437 289.479L235.995 289.244L235.994 289.246L236.437 289.479ZM234.955 289.479L235.397 289.246L235.395 289.243L234.955 289.479ZM232.082 284.123L232.522 283.887L231.361 281.722L231.584 284.168L232.082 284.123ZM232.114 284.545L231.615 284.577L232.114 284.545ZM232.127 291V291.5H232.627V291H232.127ZM230.587 291H230.087V291.5H230.587V291ZM230.587 281.601V281.101H230.087V281.601H230.587ZM232.108 281.607L232.069 282.106L232.069 282.106L232.108 281.607ZM232.257 281.64L232.071 282.104L232.079 282.107L232.086 282.11L232.257 281.64ZM232.381 281.724L232.007 282.057L232.017 282.068L232.027 282.078L232.381 281.724ZM232.491 281.88L232.05 282.116L232.051 282.118L232.491 281.88ZM235.306 287.1L235.747 286.865L235.746 286.863L235.306 287.1ZM235.507 287.529L235.045 287.719L235.05 287.731L235.507 287.529ZM235.696 287.984L235.23 288.165L235.702 289.38L236.163 288.161L235.696 287.984ZM235.884 287.523L236.342 287.724L236.344 287.719L235.884 287.523ZM236.092 287.087L235.651 286.852L235.65 286.852L236.092 287.087ZM238.868 281.88L238.426 281.645L238.426 281.645L238.868 281.88ZM239.102 281.64L238.931 281.17L238.923 281.173L238.916 281.176L239.102 281.64ZM239.258 281.607L239.296 282.106L239.296 282.106L239.258 281.607ZM240.279 281.601V291H241.279V281.601H240.279ZM240.779 290.5H239.238V291.5H240.779V290.5ZM239.738 291V284.929H238.738V291H239.738ZM239.738 284.929C239.738 284.704 239.75 284.457 239.775 284.188L238.779 284.097C238.752 284.391 238.738 284.669 238.738 284.929H239.738ZM238.836 283.908L235.995 289.244L236.878 289.714L239.718 284.377L238.836 283.908ZM235.994 289.246C235.96 289.311 235.932 289.333 235.918 289.342C235.905 289.35 235.878 289.363 235.819 289.363V290.363C236.037 290.363 236.252 290.311 236.445 290.191C236.637 290.072 236.779 289.903 236.879 289.712L235.994 289.246ZM235.819 289.363H235.572V290.363H235.819V289.363ZM235.572 289.363C235.513 289.363 235.486 289.35 235.473 289.342C235.46 289.333 235.431 289.311 235.397 289.246L234.512 289.712C234.613 289.903 234.754 290.072 234.946 290.191C235.139 290.311 235.354 290.363 235.572 290.363V289.363ZM235.395 289.243L232.522 283.887L231.641 284.359L234.514 289.715L235.395 289.243ZM231.584 284.168C231.596 284.307 231.607 284.443 231.615 284.577L232.613 284.514C232.604 284.371 232.593 284.225 232.579 284.078L231.584 284.168ZM231.615 284.577C231.623 284.707 231.627 284.824 231.627 284.929H232.627C232.627 284.8 232.622 284.662 232.613 284.514L231.615 284.577ZM231.627 284.929V291H232.627V284.929H231.627ZM232.127 290.5H230.587V291.5H232.127V290.5ZM231.087 291V281.601H230.087V291H231.087ZM230.587 282.101H231.906V281.101H230.587V282.101ZM231.906 282.101C231.976 282.101 232.029 282.103 232.069 282.106L232.146 281.109C232.073 281.103 231.992 281.101 231.906 281.101V282.101ZM232.069 282.106C232.085 282.107 232.084 282.109 232.071 282.104L232.443 281.176C232.344 281.136 232.243 281.116 232.146 281.109L232.069 282.106ZM232.086 282.11C232.071 282.104 232.056 282.097 232.041 282.087C232.027 282.077 232.015 282.066 232.007 282.057L232.754 281.392C232.666 281.293 232.556 281.217 232.428 281.17L232.086 282.11ZM232.027 282.078C232.024 282.075 232.025 282.075 232.029 282.082C232.034 282.088 232.041 282.099 232.05 282.116L232.932 281.645C232.882 281.55 232.817 281.454 232.734 281.371L232.027 282.078ZM232.051 282.118L234.865 287.337L235.746 286.863L232.931 281.643L232.051 282.118ZM234.864 287.335C234.93 287.459 234.99 287.587 235.045 287.719L235.969 287.339C235.903 287.176 235.829 287.019 235.747 286.865L234.864 287.335ZM235.05 287.731C235.111 287.871 235.171 288.016 235.23 288.165L236.162 287.803C236.098 287.64 236.033 287.482 235.964 287.327L235.05 287.731ZM236.163 288.161C236.221 288.008 236.28 287.863 236.341 287.724L235.427 287.321C235.358 287.477 235.292 287.639 235.228 287.807L236.163 288.161ZM236.344 287.719C236.403 287.58 236.467 287.447 236.534 287.322L235.65 286.852C235.57 287.004 235.495 287.162 235.424 287.326L236.344 287.719ZM236.533 287.322L239.309 282.116L238.426 281.645L235.651 286.852L236.533 287.322ZM239.309 282.116C239.318 282.099 239.325 282.088 239.329 282.082C239.334 282.075 239.335 282.075 239.332 282.078L238.624 281.371C238.541 281.454 238.477 281.55 238.426 281.645L239.309 282.116ZM239.332 282.078C239.331 282.078 239.317 282.092 239.287 282.104L238.916 281.176C238.799 281.222 238.703 281.293 238.624 281.371L239.332 282.078ZM239.272 282.11C239.273 282.11 239.28 282.107 239.296 282.106L239.219 281.109C239.123 281.116 239.026 281.136 238.931 281.17L239.272 282.11ZM239.296 282.106C239.336 282.103 239.389 282.101 239.459 282.101V281.101C239.373 281.101 239.292 281.103 239.219 281.109L239.296 282.106ZM239.459 282.101H240.779V281.101H239.459V282.101ZM247.842 287.451V287.951H248.557L248.311 287.279L247.842 287.451ZM246.698 284.324L247.167 284.153L247.164 284.144L247.161 284.136L246.698 284.324ZM246.522 283.83L246.999 283.679V283.679L246.522 283.83ZM246.34 283.213L246.822 283.081L246.322 281.259L245.856 283.089L246.34 283.213ZM246.165 283.837L246.641 283.989L246.642 283.986L246.165 283.837ZM245.989 284.337L245.524 284.154L245.519 284.166L245.989 284.337ZM244.852 287.451L244.382 287.279L244.137 287.951H244.852V287.451ZM250.929 291V291.5H251.663L251.394 290.817L250.929 291ZM249.207 290.889L248.89 291.277L248.901 291.285L249.207 290.889ZM248.992 290.604L248.523 290.775L248.527 290.787L248.532 290.798L248.992 290.604ZM248.29 288.686L248.76 288.514L248.64 288.186H248.29V288.686ZM244.397 288.686V288.186H244.047L243.927 288.514L244.397 288.686ZM243.695 290.604L243.225 290.432L243.222 290.439L243.695 290.604ZM243.493 290.877L243.175 290.491L243.493 290.877ZM241.758 291L241.292 290.817L241.024 291.5H241.758V291ZM245.456 281.601V281.101H245.116L244.991 281.418L245.456 281.601ZM247.237 281.601L247.702 281.418L247.578 281.101H247.237V281.601ZM248.311 287.279L247.167 284.153L246.228 284.496L247.372 287.623L248.311 287.279ZM247.161 284.136C247.111 284.013 247.057 283.861 246.999 283.679L246.046 283.982C246.109 284.181 246.172 284.359 246.234 284.513L247.161 284.136ZM246.999 283.679C246.94 283.495 246.881 283.296 246.822 283.081L245.858 283.345C245.92 283.572 245.983 283.784 246.046 283.982L246.999 283.679ZM245.856 283.089C245.801 283.303 245.745 283.503 245.687 283.688L246.642 283.986C246.706 283.781 246.766 283.565 246.825 283.337L245.856 283.089ZM245.688 283.685C245.63 283.868 245.575 284.024 245.524 284.154L246.454 284.521C246.516 284.365 246.578 284.187 246.641 283.989L245.688 283.685ZM245.519 284.166L244.382 287.279L245.321 287.623L246.459 284.509L245.519 284.166ZM244.852 287.951H247.842V286.951H244.852V287.951ZM250.929 290.5H249.577V291.5H250.929V290.5ZM249.577 290.5C249.541 290.5 249.522 290.496 249.514 290.493C249.507 290.491 249.508 290.491 249.512 290.494L248.901 291.285C249.104 291.442 249.344 291.5 249.577 291.5V290.5ZM249.523 290.503C249.49 290.476 249.468 290.446 249.453 290.409L248.532 290.798C248.611 290.986 248.732 291.147 248.89 291.276L249.523 290.503ZM249.462 290.432L248.76 288.514L247.821 288.858L248.523 290.775L249.462 290.432ZM248.29 288.186H244.397V289.186H248.29V288.186ZM243.927 288.514L243.225 290.432L244.164 290.775L244.866 288.858L243.927 288.514ZM243.222 290.439C243.224 290.435 243.22 290.454 243.175 290.491L243.812 291.262C243.966 291.134 244.096 290.971 244.167 290.768L243.222 290.439ZM243.175 290.491C243.173 290.493 243.171 290.494 243.168 290.495C243.163 290.496 243.15 290.5 243.123 290.5V291.5C243.369 291.5 243.61 291.429 243.812 291.262L243.175 290.491ZM243.123 290.5H241.758V291.5H243.123V290.5ZM242.223 291.183L245.921 281.784L244.991 281.418L241.292 290.817L242.223 291.183ZM245.456 282.101H247.237V281.101H245.456V282.101ZM246.772 281.784L250.464 291.183L251.394 290.817L247.702 281.418L246.772 281.784ZM256.907 283.31L257.341 283.559L257.345 283.551L257.349 283.544L256.907 283.31ZM256.738 283.512L257.023 283.923L257.029 283.919L256.738 283.512ZM256.224 283.473L255.947 283.889L255.957 283.896L255.967 283.902L256.224 283.473ZM255.847 283.245L256.091 282.809L256.091 282.809L255.847 283.245ZM255.327 283.024L255.16 283.496L255.172 283.5L255.327 283.024ZM253.995 283.011L254.143 283.489L254.153 283.486L253.995 283.011ZM253.533 283.252L253.215 282.867L253.208 282.872L253.533 283.252ZM253.26 283.629L253.721 283.824L253.723 283.819L253.26 283.629ZM253.351 284.656L252.965 284.974L252.971 284.98L253.351 284.656ZM253.845 285.033L253.618 285.478L253.845 285.033ZM255.34 285.579L255.176 286.051L255.182 286.053L255.34 285.579ZM256.14 285.904L255.922 286.354L255.929 286.357L256.14 285.904ZM256.835 286.372L256.494 286.737L256.498 286.741L256.835 286.372ZM257.323 287.061L256.866 287.264L256.869 287.27L257.323 287.061ZM257.29 289.252L256.825 289.068L256.824 289.071L257.29 289.252ZM256.653 290.22L257.004 290.576L257.004 290.576L256.653 290.22ZM255.633 290.87L255.813 291.336L255.818 291.335L255.633 290.87ZM253.364 291.013L253.467 290.524L253.46 290.522L253.364 291.013ZM252.526 290.766L252.336 291.229L252.339 291.23L252.526 290.766ZM251.778 290.376L251.507 290.796L251.778 290.376ZM251.154 289.869L250.728 289.608L250.525 289.94L250.797 290.218L251.154 289.869ZM251.668 289.031L251.261 288.74L251.251 288.754L251.242 288.769L251.668 289.031ZM251.837 288.881L252.082 289.317L252.092 289.311L252.102 289.305L251.837 288.881ZM252.409 288.952L252.116 289.358L252.125 289.364L252.409 288.952ZM252.857 289.245L253.122 288.821L252.857 289.245ZM253.462 289.544L253.278 290.009L253.288 290.013L253.462 289.544ZM255.457 289.323L255.783 289.703L255.786 289.7L255.457 289.323ZM255.678 287.698L255.284 288.005L255.289 288.012L255.678 287.698ZM255.191 287.308L254.956 287.749L254.964 287.753L255.191 287.308ZM254.495 287.035L254.359 287.516L254.495 287.035ZM253.702 286.795L253.549 287.27H253.549L253.702 286.795ZM252.214 286.008L251.868 286.369L252.214 286.008ZM251.72 285.28L251.258 285.47L251.261 285.479L251.72 285.28ZM251.739 283.193L251.28 282.997L251.277 283.003L251.739 283.193ZM252.337 282.329L251.99 281.97L251.99 281.97L252.337 282.329ZM256.146 281.757L255.973 282.226L256.146 281.757ZM257.342 282.485L257.785 282.718L257.962 282.383L257.686 282.122L257.342 282.485ZM256.473 283.062C256.459 283.087 256.448 283.101 256.443 283.108C256.437 283.115 256.438 283.112 256.447 283.105L257.029 283.919C257.167 283.82 257.267 283.689 257.341 283.559L256.473 283.062ZM256.453 283.101C256.5 283.068 256.535 283.07 256.523 283.07V284.07C256.685 284.07 256.863 284.034 257.023 283.923L256.453 283.101ZM256.523 283.07C256.538 283.07 256.543 283.073 256.535 283.071C256.528 283.068 256.51 283.061 256.482 283.044L255.967 283.902C256.124 283.996 256.313 284.07 256.523 284.07V283.07ZM256.502 283.057C256.384 282.978 256.246 282.896 256.091 282.809L255.604 283.682C255.743 283.76 255.857 283.829 255.947 283.889L256.502 283.057ZM256.091 282.809C255.91 282.708 255.706 282.622 255.482 282.549L255.172 283.5C255.348 283.557 255.49 283.619 255.604 283.682L256.091 282.809ZM255.495 282.553C255.233 282.46 254.942 282.42 254.632 282.42V283.42C254.86 283.42 255.032 283.45 255.16 283.496L255.495 282.553ZM254.632 282.42C254.349 282.42 254.081 282.456 253.837 282.537L254.153 283.486C254.273 283.446 254.429 283.42 254.632 283.42V282.42ZM253.847 282.534C253.613 282.606 253.398 282.715 253.215 282.867L253.852 283.637C253.92 283.581 254.013 283.529 254.143 283.489L253.847 282.534ZM253.208 282.872C253.027 283.028 252.889 283.218 252.798 283.439L253.723 283.819C253.753 283.745 253.797 283.684 253.859 283.632L253.208 282.872ZM252.8 283.434C252.71 283.645 252.669 283.871 252.669 284.103H253.669C253.669 283.989 253.689 283.899 253.721 283.824L252.8 283.434ZM252.669 284.103C252.669 284.421 252.759 284.723 252.966 284.974L253.737 284.338C253.701 284.294 253.669 284.228 253.669 284.103H252.669ZM252.971 284.98C253.146 285.186 253.366 285.35 253.618 285.478L254.073 284.588C253.917 284.508 253.808 284.421 253.732 284.332L252.971 284.98ZM253.618 285.478C253.85 285.597 254.109 285.7 254.39 285.789L254.692 284.836C254.453 284.76 254.248 284.677 254.073 284.588L253.618 285.478ZM254.39 285.789C254.645 285.87 254.907 285.957 255.176 286.051L255.505 285.107C255.228 285.01 254.957 284.92 254.692 284.836L254.39 285.789ZM255.182 286.053C255.435 286.138 255.682 286.238 255.922 286.354L256.358 285.454C256.078 285.319 255.792 285.202 255.499 285.105L255.182 286.053ZM255.929 286.357C256.142 286.457 256.33 286.583 256.494 286.737L257.177 286.007C256.934 285.779 256.658 285.594 256.351 285.451L255.929 286.357ZM256.498 286.741C256.647 286.877 256.77 287.049 256.866 287.264L257.78 286.858C257.633 286.527 257.431 286.24 257.173 286.003L256.498 286.741ZM256.869 287.27C256.957 287.461 257.011 287.717 257.011 288.056H258.011C258.011 287.614 257.941 287.207 257.777 286.852L256.869 287.27ZM257.011 288.056C257.011 288.421 256.948 288.757 256.825 289.068L257.755 289.435C257.927 289.001 258.011 288.539 258.011 288.056H257.011ZM256.824 289.071C256.707 289.373 256.534 289.636 256.303 289.864L257.004 290.576C257.336 290.249 257.588 289.867 257.757 289.432L256.824 289.071ZM256.303 289.864C256.078 290.085 255.796 290.267 255.448 290.405L255.818 291.335C256.276 291.152 256.674 290.901 257.004 290.576L256.303 289.864ZM255.452 290.404C255.117 290.533 254.719 290.604 254.248 290.604V291.604C254.818 291.604 255.342 291.519 255.813 291.336L255.452 290.404ZM254.248 290.604C253.984 290.604 253.723 290.577 253.467 290.524L253.262 291.502C253.586 291.57 253.915 291.604 254.248 291.604V290.604ZM253.46 290.522C253.2 290.472 252.951 290.398 252.713 290.302L252.339 291.23C252.638 291.35 252.948 291.442 253.269 291.504L253.46 290.522ZM252.716 290.303C252.479 290.206 252.258 290.091 252.05 289.956L251.507 290.796C251.767 290.965 252.044 291.109 252.336 291.229L252.716 290.303ZM252.05 289.956C251.845 289.823 251.667 289.678 251.512 289.52L250.797 290.218C251.006 290.433 251.244 290.625 251.507 290.796L252.05 289.956ZM251.581 290.13L252.094 289.292L251.242 288.769L250.728 289.608L251.581 290.13ZM252.075 289.321C252.074 289.322 252.074 289.322 252.074 289.322C252.074 289.322 252.076 289.32 252.082 289.317L251.592 288.445C251.463 288.518 251.35 288.616 251.261 288.74L252.075 289.321ZM252.102 289.305C252.101 289.306 252.095 289.309 252.085 289.312C252.076 289.315 252.066 289.316 252.058 289.316V288.316C251.882 288.316 251.717 288.367 251.572 288.457L252.102 289.305ZM252.058 289.316C252.041 289.316 252.036 289.312 252.046 289.316C252.056 289.32 252.08 289.331 252.116 289.357L252.702 288.548C252.527 288.42 252.308 288.316 252.058 288.316V289.316ZM252.125 289.364C252.259 289.456 252.415 289.558 252.592 289.669L253.122 288.821C252.954 288.715 252.811 288.622 252.693 288.541L252.125 289.364ZM252.592 289.669C252.796 289.796 253.026 289.909 253.278 290.009L253.646 289.079C253.439 288.997 253.266 288.91 253.122 288.821L252.592 289.669ZM253.288 290.013C253.592 290.125 253.933 290.174 254.3 290.174V289.174C254.018 289.174 253.8 289.136 253.636 289.075L253.288 290.013ZM254.3 290.174C254.872 290.174 255.39 290.04 255.783 289.703L255.132 288.943C254.979 289.074 254.725 289.174 254.3 289.174V290.174ZM255.786 289.7C256.192 289.346 256.367 288.854 256.367 288.302H255.367C255.367 288.635 255.269 288.824 255.129 288.946L255.786 289.7ZM256.367 288.302C256.367 287.969 256.281 287.648 256.068 287.384L255.289 288.012C255.328 288.06 255.367 288.142 255.367 288.302H256.367ZM256.073 287.391C255.9 287.169 255.677 286.995 255.418 286.863L254.964 287.753C255.112 287.829 255.214 287.915 255.284 288.005L256.073 287.391ZM255.426 286.867C255.186 286.739 254.92 286.636 254.632 286.554L254.359 287.516C254.591 287.582 254.789 287.66 254.956 287.749L255.426 286.867ZM254.632 286.554C254.378 286.482 254.119 286.404 253.856 286.319L253.549 287.27C253.823 287.359 254.093 287.441 254.359 287.516L254.632 286.554ZM253.856 286.319C253.607 286.238 253.362 286.142 253.121 286.029L252.698 286.936C252.977 287.066 253.26 287.177 253.549 287.27L253.856 286.319ZM253.121 286.029C252.91 285.931 252.723 285.803 252.56 285.647L251.868 286.369C252.112 286.603 252.389 286.792 252.698 286.936L253.121 286.029ZM252.56 285.647C252.41 285.503 252.281 285.318 252.179 285.081L251.261 285.479C251.41 285.823 251.611 286.123 251.868 286.369L252.56 285.647ZM252.182 285.09C252.093 284.872 252.038 284.579 252.038 284.194H251.038C251.038 284.668 251.104 285.098 251.258 285.47L252.182 285.09ZM252.038 284.194C252.038 283.92 252.092 283.651 252.202 283.384L251.277 283.003C251.119 283.386 251.038 283.785 251.038 284.194H252.038ZM252.199 283.39C252.311 283.128 252.472 282.895 252.685 282.688L251.99 281.97C251.683 282.266 251.445 282.609 251.28 282.997L252.199 283.39ZM252.685 282.688C252.892 282.488 253.155 282.32 253.484 282.189L253.115 281.26C252.681 281.432 252.303 281.667 251.99 281.97L252.685 282.688ZM253.484 282.189C253.796 282.065 254.169 281.997 254.612 281.997V280.997C254.068 280.997 253.565 281.081 253.115 281.26L253.484 282.189ZM254.612 281.997C255.114 281.997 255.566 282.075 255.973 282.226L256.32 281.288C255.791 281.092 255.22 280.997 254.612 280.997V281.997ZM255.973 282.226C256.384 282.378 256.723 282.587 256.999 282.848L257.686 282.122C257.303 281.759 256.845 281.483 256.32 281.288L255.973 282.226ZM256.9 282.252L256.465 283.077L257.349 283.544L257.785 282.718L256.9 282.252ZM260.785 285.54H260.285V286.04H260.785V285.54ZM261.604 285.475L261.79 285.939L261.798 285.936L261.806 285.933L261.604 285.475ZM261.884 285.254L261.491 284.944L261.49 284.946L261.884 285.254ZM264.477 281.971L264.87 282.281L264.871 282.279L264.477 281.971ZM264.815 281.685L265.018 282.142L265.026 282.139L264.815 281.685ZM266.778 281.601L267.167 281.916L267.827 281.101H266.778V281.601ZM263.613 285.507L263.224 285.193L263.219 285.2L263.613 285.507ZM263.034 286.014L262.811 285.567L261.771 286.087L262.863 286.484L263.034 286.014ZM263.418 286.235L263.095 286.617L263.103 286.624L263.111 286.63L263.418 286.235ZM263.749 286.599L263.337 286.882L263.342 286.89L263.348 286.897L263.749 286.599ZM267.012 291V291.5H268.005L267.414 290.702L267.012 291ZM265.004 290.915L264.744 291.343L264.755 291.349L264.766 291.355L265.004 290.915ZM264.75 290.656L265.176 290.393L265.163 290.372L265.147 290.351L264.75 290.656ZM262.092 287.184L261.683 287.472L261.689 287.481L261.695 287.489L262.092 287.184ZM261.806 286.938L261.604 287.395V287.395L261.806 286.938ZM260.785 286.866V286.366H260.285V286.866H260.785ZM260.785 291V291.5H261.285V291H260.785ZM259.037 291H258.537V291.5H259.037V291ZM259.037 281.601V281.101H258.537V281.601H259.037ZM260.785 281.601H261.285V281.101H260.785V281.601ZM260.785 286.04H261.195V285.04H260.785V286.04ZM261.195 286.04C261.399 286.04 261.604 286.014 261.79 285.939L261.419 285.011C261.388 285.023 261.32 285.04 261.195 285.04V286.04ZM261.806 285.933C261.995 285.849 262.152 285.722 262.277 285.562L261.49 284.946C261.459 284.985 261.431 285.005 261.403 285.017L261.806 285.933ZM262.276 285.564L264.87 282.281L264.085 281.662L261.491 284.944L262.276 285.564ZM264.871 282.279C264.947 282.182 264.999 282.151 265.018 282.142L264.612 281.229C264.398 281.324 264.224 281.483 264.083 281.664L264.871 282.279ZM265.026 282.139C265.062 282.122 265.136 282.101 265.27 282.101V281.101C265.04 281.101 264.811 281.136 264.605 281.232L265.026 282.139ZM265.27 282.101H266.778V281.101H265.27V282.101ZM266.39 281.286L263.224 285.193L264.001 285.822L267.167 281.916L266.39 281.286ZM263.219 285.2C263.063 285.399 262.924 285.51 262.811 285.567L263.258 286.462C263.543 286.319 263.79 286.092 264.007 285.815L263.219 285.2ZM262.863 286.484C262.953 286.517 263.029 286.561 263.095 286.617L263.741 285.854C263.582 285.719 263.402 285.616 263.205 285.545L262.863 286.484ZM263.111 286.63C263.179 286.683 263.255 286.763 263.337 286.882L264.162 286.317C264.035 286.132 263.891 285.97 263.725 285.841L263.111 286.63ZM263.348 286.897L266.611 291.298L267.414 290.702L264.151 286.302L263.348 286.897ZM267.012 290.5H265.472V291.5H267.012V290.5ZM265.472 290.5C265.389 290.5 265.329 290.494 265.288 290.487C265.245 290.479 265.234 290.472 265.242 290.476L264.766 291.355C264.979 291.471 265.235 291.5 265.472 291.5V290.5ZM265.264 290.488C265.24 290.474 265.21 290.448 265.176 290.393L264.324 290.918C264.43 291.088 264.568 291.236 264.744 291.343L265.264 290.488ZM265.147 290.351L262.489 286.88L261.695 287.489L264.353 290.96L265.147 290.351ZM262.501 286.897C262.377 286.721 262.215 286.571 262.007 286.48L261.604 287.395C261.613 287.399 261.642 287.414 261.683 287.472L262.501 286.897ZM262.007 286.48C261.805 286.391 261.568 286.366 261.338 286.366V287.366C261.515 287.366 261.59 287.389 261.604 287.395L262.007 286.48ZM261.338 286.366H260.785V287.366H261.338V286.366ZM260.285 286.866V291H261.285V286.866H260.285ZM260.785 290.5H259.037V291.5H260.785V290.5ZM259.537 291V281.601H258.537V291H259.537ZM259.037 282.101H260.785V281.101H259.037V282.101ZM260.285 281.601V285.54H261.285V281.601H260.285ZM267.533 289.733L267.073 289.536L267.07 289.543L267.067 289.55L267.533 289.733ZM267.741 289.42L267.387 289.067L267.741 289.42ZM268.053 289.212L267.856 288.753L268.053 289.212ZM268.826 289.212L268.623 289.669L268.629 289.672L268.826 289.212ZM269.138 289.42L268.785 289.774L268.794 289.783L269.138 289.42ZM269.353 289.733L268.893 289.929L269.353 289.733ZM269.353 290.506L269.81 290.709L269.812 290.703L269.353 290.506ZM269.138 290.811L268.793 290.449L268.785 290.458L269.138 290.811ZM268.826 291.013L268.644 290.548L268.633 290.552L268.623 290.556L268.826 291.013ZM268.053 291.013L268.25 290.553L268.243 290.55L268.236 290.548L268.053 291.013ZM267.741 290.811L268.094 290.458L267.741 290.811ZM267.533 290.506L267.067 290.689L267.071 290.699L267.076 290.709L267.533 290.506ZM267.961 290.116C267.961 290.042 267.974 289.977 267.998 289.915L267.067 289.55C266.996 289.731 266.961 289.921 266.961 290.116H267.961ZM267.992 289.929C268.021 289.862 268.056 289.812 268.094 289.774L267.387 289.067C267.252 289.202 267.148 289.36 267.073 289.536L267.992 289.929ZM268.094 289.774C268.133 289.736 268.182 289.701 268.25 289.672L267.856 288.753C267.681 288.828 267.522 288.932 267.387 289.067L268.094 289.774ZM268.25 289.672C268.306 289.648 268.368 289.634 268.443 289.634V288.634C268.24 288.634 268.043 288.673 267.856 288.753L268.25 289.672ZM268.443 289.634C268.517 289.634 268.575 289.648 268.623 289.669L269.029 288.756C268.843 288.673 268.646 288.634 268.443 288.634V289.634ZM268.629 289.672C268.697 289.701 268.746 289.736 268.785 289.774L269.492 289.067C269.357 288.932 269.199 288.828 269.023 288.753L268.629 289.672ZM268.794 289.783C268.833 289.82 268.867 289.867 268.893 289.929L269.812 289.536C269.735 289.355 269.626 289.194 269.483 289.058L268.794 289.783ZM268.893 289.929C268.918 289.987 268.931 290.048 268.931 290.116H269.931C269.931 289.915 269.892 289.72 269.812 289.536L268.893 289.929ZM268.931 290.116C268.931 290.19 268.917 290.253 268.893 290.309L269.812 290.703C269.892 290.516 269.931 290.319 269.931 290.116H268.931ZM268.896 290.303C268.87 290.361 268.836 290.409 268.794 290.449L269.483 291.174C269.622 291.041 269.732 290.885 269.81 290.709L268.896 290.303ZM268.785 290.458C268.75 290.493 268.705 290.523 268.644 290.548L269.009 291.478C269.19 291.407 269.354 291.303 269.492 291.165L268.785 290.458ZM268.623 290.556C268.575 290.577 268.517 290.591 268.443 290.591V291.591C268.646 291.591 268.843 291.553 269.029 291.47L268.623 290.556ZM268.443 290.591C268.368 290.591 268.306 290.577 268.25 290.553L267.856 291.473C268.043 291.553 268.24 291.591 268.443 291.591V290.591ZM268.236 290.548C268.174 290.523 268.129 290.493 268.094 290.458L267.387 291.165C267.526 291.303 267.689 291.407 267.87 291.478L268.236 290.548ZM268.094 290.458C268.053 290.417 268.018 290.366 267.99 290.303L267.076 290.709C267.152 290.88 267.255 291.033 267.387 291.165L268.094 290.458ZM267.998 290.323C267.975 290.264 267.961 290.196 267.961 290.116H266.961C266.961 290.313 266.995 290.506 267.067 290.689L267.998 290.323ZM212.803 307V307.5H213.303V307H212.803ZM211.048 307H210.548V307.5H211.048V307ZM211.048 297.601V297.101H210.548V297.601H211.048ZM212.803 297.601H213.303V297.101H212.803V297.601ZM212.803 306.5H211.048V307.5H212.803V306.5ZM211.548 307V297.601H210.548V307H211.548ZM211.048 298.101H212.803V297.101H211.048V298.101ZM212.303 297.601V307H213.303V297.601H212.303ZM222.909 304.198L222.445 304.013L222.909 304.198ZM221.941 305.687L221.587 305.333H221.587L221.941 305.687ZM220.439 306.656L220.622 307.121L220.439 306.656ZM214.908 307H214.408V307.5H214.908V307ZM214.908 297.601V297.101H214.408V297.601H214.908ZM220.439 297.952L220.254 298.416L220.257 298.417L220.439 297.952ZM221.941 298.92L221.587 299.274L221.589 299.276L221.941 298.92ZM222.909 300.403L223.374 300.217L223.374 300.217L222.909 300.403ZM221.252 300.916L220.776 301.071L220.779 301.077L221.252 300.916ZM220.66 299.876L220.288 300.209L220.293 300.215L220.66 299.876ZM219.724 299.219L219.532 299.681L219.534 299.682L219.724 299.219ZM216.663 298.992V298.492H216.163V298.992H216.663ZM216.663 305.609H216.163V306.109H216.663V305.609ZM219.724 305.382L219.534 304.919L219.532 304.92L219.724 305.382ZM220.66 304.732L220.29 304.395L220.29 304.395L220.66 304.732ZM221.252 303.691L220.778 303.532L220.777 303.535L221.252 303.691ZM222.754 302.3C222.754 302.933 222.649 303.502 222.445 304.013L223.374 304.384C223.629 303.742 223.754 303.046 223.754 302.3H222.754ZM222.445 304.013C222.239 304.53 221.953 304.968 221.587 305.333L222.294 306.041C222.761 305.574 223.12 305.02 223.374 304.384L222.445 304.013ZM221.587 305.333C221.223 305.698 220.782 305.984 220.257 306.19L220.622 307.121C221.267 306.868 221.826 306.508 222.294 306.041L221.587 305.333ZM220.257 306.19C219.737 306.394 219.15 306.5 218.489 306.5V307.5C219.258 307.5 219.971 307.376 220.622 307.121L220.257 306.19ZM218.489 306.5H214.908V307.5H218.489V306.5ZM215.408 307V297.601H214.408V307H215.408ZM214.908 298.101H218.489V297.101H214.908V298.101ZM218.489 298.101C219.149 298.101 219.735 298.209 220.254 298.416L220.625 297.488C219.974 297.227 219.259 297.101 218.489 297.101V298.101ZM220.257 298.417C220.782 298.624 221.223 298.91 221.587 299.274L222.294 298.567C221.826 298.099 221.267 297.74 220.622 297.487L220.257 298.417ZM221.589 299.276C221.953 299.636 222.239 300.071 222.445 300.588L223.374 300.217C223.12 299.581 222.76 299.028 222.293 298.565L221.589 299.276ZM222.445 300.588C222.649 301.099 222.754 301.668 222.754 302.3H223.754C223.754 301.555 223.629 300.859 223.374 300.217L222.445 300.588ZM221.96 302.3C221.96 301.741 221.885 301.223 221.725 300.755L220.779 301.077C220.896 301.423 220.96 301.829 220.96 302.3H221.96ZM221.727 300.761C221.573 300.29 221.342 299.878 221.028 299.537L220.293 300.215C220.498 300.437 220.662 300.719 220.776 301.071L221.727 300.761ZM221.033 299.543C220.725 299.198 220.35 298.936 219.915 298.757L219.534 299.682C219.835 299.806 220.084 299.982 220.288 300.209L221.033 299.543ZM219.917 298.758C219.483 298.577 219.004 298.492 218.489 298.492V299.492C218.893 299.492 219.238 299.559 219.532 299.681L219.917 298.758ZM218.489 298.492H216.663V299.492H218.489V298.492ZM216.163 298.992V305.609H217.163V298.992H216.163ZM216.663 306.109H218.489V305.109H216.663V306.109ZM218.489 306.109C219.004 306.109 219.483 306.024 219.917 305.843L219.532 304.92C219.238 305.042 218.893 305.109 218.489 305.109V306.109ZM219.915 305.844C220.348 305.665 220.723 305.407 221.031 305.068L220.29 304.395C220.087 304.62 219.837 304.794 219.534 304.919L219.915 305.844ZM221.03 305.068C221.342 304.725 221.573 304.315 221.727 303.848L220.777 303.535C220.662 303.883 220.498 304.166 220.29 304.395L221.03 305.068ZM221.726 303.851C221.885 303.379 221.96 302.861 221.96 302.3H220.96C220.96 302.772 220.896 303.18 220.778 303.532L221.726 303.851Z" fill="white"/>
<path d="M280 289.5C280 290.85 280 292.15 280 293.5C279.75 292.95 279.1 291.5 277.5 290.5C276.3 289.7 275.1 289.55 274.5 289.5C274.3 289.8 274.15 290.1 274 290.5C273.45 292 273.8 293.35 274 294C273.65 293.35 273.2 292.3 273 291C272.8 289.75 272.9 288.7 273 288C274.1 288 275.45 288.15 277 288.5C278.15 288.8 279.15 289.15 280 289.5Z" fill="#E6E6E6"/>
<path d="M284 227.5C282.05 238.8 280.65 251.9 280.55 266.45C280.5 274.85 280.9 282.7 281.55 289.95C278.55 289.1 275.55 288.3 272.55 287.45C273.2 290.6 273.9 293.8 274.55 296.95C275.9 299.6 277.2 302.3 278.55 304.95C276.85 306.2 274.5 308.3 272.55 311.45C268.8 317.45 268.9 323.5 269.05 325.95C267.7 311.45 267.2 299.2 267.05 289.95C266.85 277.7 267.9 271.6 268.8 256.4C269.35 246.95 270.05 233.25 270.5 216.45C275 220.15 279.5 223.85 284 227.5Z" fill="#28478A"/>
<path d="M216 227C217.55 238.8 218.55 252 218.5 266.45C218.45 274.75 218.1 282.6 217.5 289.95C220.5 289.1 223.5 288.3 226.5 287.45C225.85 290.6 225.15 293.8 224.5 296.95C223.15 299.6 221.85 302.3 220.5 304.95C222.45 306.45 224.65 308.5 226.5 311.45C231.45 319.4 230.1 327.95 230.5 328C230.8 328 232.7 320.85 232.5 291C232.35 272.9 231.45 247.5 228 216.5C224 220 220 223.5 216 227Z" fill="#28478A"/>
<path d="M219 289.5C219 290.85 219 292.15 219 293.5C219.35 292.85 220 291.9 221 291C222.55 289.65 224.15 289.2 225 289C225 290.65 225 292.35 225 294C225.35 292 225.65 290 226 288C224.9 288 223.55 288.15 222 288.5C220.85 288.8 219.85 289.15 219 289.5Z" fill="#E6E6E6"/>
<path d="M220.5 309C222.7 311.5 224.3 311.95 226.5 316.5C227.9 319.4 229.85 325.15 230.5 327.5C230.7 325.2 230.7 321.15 229 316.5C227.15 311.4 224.2 308.15 222.5 306.5C221.85 307.35 221.15 308.15 220.5 309Z" fill="#E6E6E6"/>
<path d="M279.101 308.5C276.901 311 275.301 311.45 273.101 316C271.701 318.9 269.751 324.65 269.101 327C268.951 324.7 268.901 320.65 270.601 316C272.451 310.9 275.401 307.65 277.101 306C277.751 306.85 278.401 307.65 279.101 308.5Z" fill="#E6E6E6"/>
<path d="M203.25 287.75C200.5 295.95 197.35 303.15 194.25 309.25C194.4 306.1 194.6 302.9 194.75 299.75C196.6 296.05 198.45 292.2 200.25 288.25C203.25 281.7 205.9 275.35 208.25 269.25C207.1 274.9 205.5 281.1 203.25 287.75Z" fill="#E6E6E6"/>
<path d="M296.75 293.25C299.5 301.45 302.65 308.65 305.75 314.75C305.6 311.6 305.4 308.4 305.25 305.25C303.4 301.55 301.55 297.7 299.75 293.75C296.75 287.2 294.1 280.85 291.75 274.75C292.9 280.4 294.5 286.6 296.75 293.25Z" fill="#E6E6E6"/>
<path d="M251.5 398.5C247 432.35 242.5 466.15 238 500C244 500 250 500 256 500C254.5 466.15 253 432.35 251.5 398.5Z" fill="#333333"/>
<path d="M491.477 241.668C491.764 241.04 480.599 235.311 466.54 228.872C452.48 222.433 440.849 217.722 440.562 218.35C440.274 218.977 451.439 224.706 465.499 231.145C479.558 237.584 491.189 242.296 491.477 241.668Z" fill="#E6E6E6"/>
<path d="M488.977 245.168C489.264 244.54 478.1 238.812 464.04 232.372C449.98 225.933 438.349 221.222 438.062 221.85C437.774 222.477 448.939 228.206 462.999 234.645C477.059 241.085 488.689 245.796 488.977 245.168Z" fill="#E6E6E6"/>
<path d="M444 228C448.85 230.15 453.65 232.35 458.5 234.5C456.35 237.5 454.15 240.5 452 243.5C447.35 241.35 442.65 239.15 438 237C440 234 442 231 444 228Z" fill="#E6E6E6"/>
<path d="M479.475 260.169C479.762 259.541 468.598 253.812 454.538 247.373C440.478 240.934 428.847 236.223 428.56 236.85C428.272 237.478 439.437 243.207 453.497 249.646C467.557 256.085 479.187 260.796 479.475 260.169Z" fill="#E6E6E6"/>
<path d="M476.975 263.669C477.262 263.041 466.098 257.312 452.038 250.873C437.978 244.434 426.347 239.723 426.06 240.35C425.772 240.978 436.937 246.707 450.997 253.146C465.057 259.585 476.687 264.296 476.975 263.669Z" fill="#E6E6E6"/>
<path d="M474.475 267.669C474.762 267.041 463.598 261.312 449.538 254.873C435.478 248.434 423.847 243.723 423.56 244.351C423.272 244.978 434.437 250.707 448.497 257.146C462.557 263.585 474.187 268.297 474.475 267.669Z" fill="#E6E6E6"/>
<path d="M471.975 271.169C472.262 270.541 461.098 264.813 447.038 258.373C432.978 251.934 421.347 247.223 421.06 247.851C420.772 248.478 431.937 254.207 445.997 260.646C460.057 267.086 471.687 271.797 471.975 271.169Z" fill="#E6E6E6"/>
<path d="M469.475 275.169C469.762 274.542 458.598 268.813 444.538 262.374C430.478 255.934 418.847 251.223 418.56 251.851C418.272 252.479 429.437 258.207 443.497 264.647C457.557 271.086 469.187 275.797 469.475 275.169Z" fill="#E6E6E6"/>
<path d="M466.975 278.669C467.262 278.042 456.098 272.313 442.038 265.874C427.978 259.434 416.347 254.723 416.06 255.351C415.772 255.979 426.937 261.707 440.997 268.147C455.057 274.586 466.687 279.297 466.975 278.669Z" fill="#E6E6E6"/>
<path d="M457.964 283.738C459.287 279.552 455.45 274.606 449.395 272.693C443.339 270.779 437.357 272.622 436.034 276.808C434.711 280.995 438.548 285.94 444.604 287.853C450.66 289.767 456.642 287.925 457.964 283.738Z" fill="#E6E6E6"/>
<path d="M414.5 274C426.35 279.65 438.15 285.35 450 291C449.65 291.5 449.35 292 449 292.5C437.15 286.85 425.35 281.15 413.5 275.5C413.85 275 414.15 274.5 414.5 274Z" fill="#E6E6E6"/>
<path d="M412 278C423.85 283.65 435.65 289.35 447.5 295C447.15 295.5 446.85 296 446.5 296.5C434.65 290.85 422.85 285.15 411 279.5C411.35 279 411.65 278.5 412 278Z" fill="#E6E6E6"/>
<path d="M409.5 281.5C421.35 287.35 433.15 293.15 445 299C444.65 299.65 444.35 300.35 444 301C432.15 295 420.35 289 408.5 283C408.85 282.5 409.15 282 409.5 281.5Z" fill="#E6E6E6"/>
<path d="M36.2072 266.903C36.8068 266.693 36.2378 263.501 34.9363 259.773C33.6347 256.045 32.0935 253.193 31.4939 253.402C30.8943 253.611 31.4633 256.803 32.7648 260.531C34.0664 264.26 35.6076 267.112 36.2072 266.903Z" fill="#CCCCCC"/>
<path d="M38.974 265.053C39.5946 264.821 38.7627 261.069 37.1159 256.673C35.4691 252.277 33.631 248.902 33.0104 249.134C32.3898 249.367 33.2217 253.119 34.8685 257.515C36.5153 261.911 38.3534 265.286 38.974 265.053Z" fill="#CCCCCC"/>
<path d="M41.5834 262.494C42.204 262.262 41.3721 258.51 39.7252 254.114C38.0784 249.718 36.2404 246.343 35.6198 246.576C34.9992 246.808 35.8311 250.56 37.4779 254.956C39.1247 259.352 40.9628 262.727 41.5834 262.494Z" fill="#CCCCCC"/>
<path d="M44.33 260.728C44.9494 260.492 43.845 256.075 41.8631 250.861C39.8812 245.647 37.7724 241.611 37.1529 241.847C36.5334 242.082 37.6379 246.5 39.6198 251.713C41.6017 256.927 43.7105 260.963 44.33 260.728Z" fill="#CCCCCC"/>
<path d="M59.25 264.8C61.8734 264.8 64 261.935 64 258.4C64 254.865 61.8734 252 59.25 252C56.6266 252 54.5 254.865 54.5 258.4C54.5 261.935 56.6266 264.8 59.25 264.8Z" fill="#CCCCCC"/>
<path d="M59.25 258.4H64C64 261.9 61.85 264.8 59.25 264.8C56.65 264.8 54.5 261.9 54.5 258.4C54.5 254.9 56.65 252 59.25 252V258.4Z" fill="#B3B3B3"/>
<path d="M33.1017 268.117C33.8269 267.848 33.6926 265.678 32.8017 263.27C31.9108 260.861 30.6007 259.126 29.8756 259.394C29.1504 259.662 29.2847 261.832 30.1756 264.241C31.0665 266.65 32.3765 268.385 33.1017 268.117Z" fill="#CCCCCC"/>
<path d="M46.5 257.5C53.15 252 59.85 246.5 66.5 241C68.35 246.85 70.15 252.65 72 258.5C65.65 264.15 59.35 269.85 53 275.5C50.85 269.5 48.65 263.5 46.5 257.5Z" stroke="white" stroke-width="2" stroke-miterlimit="10"/>
<path d="M22 255.5C28.65 250 35.35 244.5 42 239C43.85 244.85 45.65 250.65 47.5 256.5C41.15 262.15 34.85 267.85 28.5 273.5C26.35 267.5 24.15 261.5 22 255.5Z" stroke="white" stroke-width="2" stroke-miterlimit="10"/>
<path d="M30.224 270.147C30.9425 269.948 31.1964 268.6 30.791 267.137C30.3857 265.673 29.4746 264.648 28.7561 264.847C28.0376 265.046 27.7837 266.394 28.1891 267.857C28.5944 269.321 29.5055 270.346 30.224 270.147Z" fill="#CCCCCC"/>
</g>
<defs>
<clipPath id="clip0">
<rect width="500" height="500" fill="white"/>
</clipPath>
</defs>
</svg>
