<svg width="92" height="56" viewBox="0 0 92 56" fill="none" xmlns="http://www.w3.org/2000/svg">
<path d="M11.9423 47.168C11.9423 48.0107 11.7956 48.7893 11.5023 49.504C11.2143 50.2133 10.8063 50.8293 10.2783 51.352C9.75025 51.8693 9.11292 52.2747 8.36625 52.568C7.62492 52.856 6.80092 53 5.89425 53H1.36625V41.344H5.89425C6.80092 41.344 7.62492 41.4907 8.36625 41.784C9.11292 42.0773 9.75025 42.4827 10.2783 43C10.8063 43.5173 11.2143 44.1333 11.5023 44.848C11.7956 45.5573 11.9423 46.3307 11.9423 47.168ZM9.17425 47.168C9.17425 46.592 9.09958 46.072 8.95025 45.608C8.80092 45.144 8.58492 44.752 8.30225 44.432C8.02492 44.1067 7.68358 43.8587 7.27825 43.688C6.87292 43.512 6.41158 43.424 5.89425 43.424H4.08625V50.92H5.89425C6.41158 50.92 6.87292 50.8347 7.27825 50.664C7.68358 50.488 8.02492 50.24 8.30225 49.92C8.58492 49.5947 8.80092 49.2 8.95025 48.736C9.09958 48.272 9.17425 47.7493 9.17425 47.168ZM18.0893 50.864C18.4519 50.864 18.7746 50.8053 19.0573 50.688C19.3453 50.5653 19.5879 50.392 19.7853 50.168C19.9826 49.944 20.1319 49.672 20.2333 49.352C20.3399 49.0267 20.3933 48.6587 20.3933 48.248V41.344H23.0973V48.248C23.0973 48.9627 22.9799 49.6187 22.7453 50.216C22.5159 50.8133 22.1853 51.328 21.7533 51.76C21.3213 52.192 20.7959 52.528 20.1773 52.768C19.5586 53.008 18.8626 53.128 18.0893 53.128C17.3106 53.128 16.6119 53.008 15.9933 52.768C15.3746 52.528 14.8493 52.192 14.4173 51.76C13.9853 51.328 13.6546 50.8133 13.4253 50.216C13.1959 49.6187 13.0813 48.9627 13.0813 48.248V41.344H15.7853V48.24C15.7853 48.6507 15.8359 49.0187 15.9373 49.344C16.0439 49.664 16.1959 49.9387 16.3932 50.168C16.5906 50.392 16.8306 50.5653 17.1133 50.688C17.4013 50.8053 17.7266 50.864 18.0893 50.864ZM30.8106 47.672C30.9173 47.8747 31.0186 48.0853 31.1146 48.304C31.216 48.5227 31.312 48.7467 31.4026 48.976C31.4933 48.7413 31.5893 48.5147 31.6906 48.296C31.792 48.072 31.896 47.856 32.0026 47.648L34.9946 41.76C35.048 41.6587 35.1013 41.5813 35.1546 41.528C35.2133 41.4693 35.2773 41.4267 35.3466 41.4C35.416 41.3733 35.4933 41.3573 35.5786 41.352C35.6693 41.3467 35.7733 41.344 35.8906 41.344H37.9546V53H35.5706V46.296C35.5706 45.9707 35.5866 45.6187 35.6186 45.24L32.5306 51.232C32.4346 51.4187 32.304 51.56 32.1386 51.656C31.9786 51.752 31.7946 51.8 31.5866 51.8H31.2186C31.0106 51.8 30.824 51.752 30.6586 51.656C30.4986 51.56 30.3706 51.4187 30.2746 51.232L27.1706 45.232C27.192 45.4187 27.208 45.6053 27.2186 45.792C27.2293 45.9733 27.2346 46.1413 27.2346 46.296V53H24.8506V41.344H26.9146C27.032 41.344 27.1333 41.3467 27.2186 41.352C27.3093 41.3573 27.3893 41.3733 27.4586 41.4C27.528 41.4267 27.5893 41.4693 27.6426 41.528C27.7013 41.5813 27.7573 41.6587 27.8106 41.76L30.8106 47.672ZM50.7299 53H48.6339C48.3992 53 48.2045 52.9467 48.0499 52.84C47.9005 52.728 47.7965 52.5867 47.7379 52.416L47.0499 50.384H42.6179L41.9299 52.416C41.8765 52.5653 41.7725 52.7013 41.6179 52.824C41.4632 52.9413 41.2739 53 41.0499 53H38.9379L43.4499 41.344H46.2179L50.7299 53ZM43.2419 48.544H46.4259L45.3539 45.352C45.2845 45.1493 45.2019 44.912 45.1059 44.64C45.0152 44.3627 44.9245 44.064 44.8339 43.744C44.7485 44.0693 44.6605 44.3707 44.5699 44.648C44.4792 44.9253 44.3939 45.1653 44.3139 45.368L43.2419 48.544ZM58.1748 43.712C58.0948 43.84 58.0094 43.936 57.9188 44C57.8334 44.064 57.7214 44.096 57.5828 44.096C57.4601 44.096 57.3268 44.0587 57.1828 43.984C57.0441 43.904 56.8841 43.816 56.7028 43.72C56.5268 43.624 56.3241 43.5387 56.0948 43.464C55.8654 43.384 55.6041 43.344 55.3108 43.344C54.8041 43.344 54.4254 43.4533 54.1748 43.672C53.9294 43.8853 53.8068 44.176 53.8068 44.544C53.8068 44.7787 53.8814 44.9733 54.0308 45.128C54.1801 45.2827 54.3748 45.416 54.6148 45.528C54.8601 45.64 55.1374 45.744 55.4468 45.84C55.7614 45.9307 56.0814 46.0347 56.4068 46.152C56.7321 46.264 57.0494 46.3973 57.3588 46.552C57.6734 46.7067 57.9508 46.904 58.1908 47.144C58.4361 47.384 58.6334 47.6773 58.7828 48.024C58.9321 48.3653 59.0068 48.7787 59.0068 49.264C59.0068 49.8027 58.9134 50.3067 58.7268 50.776C58.5401 51.2453 58.2681 51.656 57.9108 52.008C57.5588 52.3547 57.1214 52.6293 56.5988 52.832C56.0814 53.0293 55.4921 53.128 54.8307 53.128C54.4681 53.128 54.0974 53.0907 53.7188 53.016C53.3454 52.9413 52.9828 52.8373 52.6308 52.704C52.2788 52.5653 51.9481 52.4027 51.6388 52.216C51.3294 52.0293 51.0601 51.8213 50.8308 51.592L51.6308 50.328C51.6894 50.232 51.7721 50.1547 51.8788 50.096C51.9854 50.0373 52.1001 50.008 52.2228 50.008C52.3828 50.008 52.5428 50.0587 52.7028 50.16C52.8681 50.2613 53.0521 50.3733 53.2548 50.496C53.4628 50.6187 53.7001 50.7307 53.9668 50.832C54.2334 50.9333 54.5481 50.984 54.9108 50.984C55.4014 50.984 55.7828 50.8773 56.0548 50.664C56.3268 50.4453 56.4628 50.1013 56.4628 49.632C56.4628 49.36 56.3881 49.1387 56.2388 48.968C56.0894 48.7973 55.8921 48.656 55.6468 48.544C55.4068 48.432 55.1321 48.3333 54.8228 48.248C54.5134 48.1627 54.1961 48.0693 53.8708 47.968C53.5454 47.8613 53.2281 47.7333 52.9188 47.584C52.6094 47.4293 52.3321 47.2293 52.0868 46.984C51.8468 46.7333 51.6521 46.424 51.5028 46.056C51.3534 45.6827 51.2788 45.224 51.2788 44.68C51.2788 44.2427 51.3668 43.816 51.5428 43.4C51.7188 42.984 51.9774 42.6133 52.3188 42.288C52.6601 41.9627 53.0788 41.704 53.5748 41.512C54.0708 41.3147 54.6388 41.216 55.2788 41.216C55.6361 41.216 55.9828 41.2453 56.3188 41.304C56.6601 41.3573 56.9828 41.44 57.2868 41.552C57.5908 41.6587 57.8734 41.7893 58.1348 41.944C58.4014 42.0933 58.6388 42.264 58.8468 42.456L58.1748 43.712ZM63.0546 46.064H63.4866C63.8866 46.064 64.1746 45.9387 64.3506 45.688L66.9746 41.88C67.1186 41.672 67.2813 41.5307 67.4626 41.456C67.6493 41.3813 67.876 41.344 68.1426 41.344H70.4946L67.0386 46.056C66.916 46.2267 66.788 46.368 66.6546 46.48C66.5213 46.592 66.3853 46.6853 66.2466 46.76C66.4493 46.8347 66.6333 46.9387 66.7986 47.072C66.9693 47.2 67.124 47.3733 67.2626 47.592L70.7826 53H68.3666C68.212 53 68.0786 52.9893 67.9666 52.968C67.86 52.9467 67.7666 52.9147 67.6866 52.872C67.6066 52.8293 67.5373 52.7787 67.4786 52.72C67.42 52.656 67.364 52.584 67.3106 52.504L64.6706 48.448C64.5746 48.2987 64.452 48.1947 64.3026 48.136C64.1586 48.072 63.9613 48.04 63.7106 48.04H63.0546V53H60.3506V41.344H63.0546V46.064ZM71.2925 51.744C71.2925 51.552 71.3272 51.3733 71.3965 51.208C71.4712 51.0427 71.5698 50.8987 71.6925 50.776C71.8205 50.6533 71.9698 50.5573 72.1405 50.488C72.3112 50.4133 72.4978 50.376 72.7005 50.376C72.8978 50.376 73.0818 50.4133 73.2525 50.488C73.4232 50.5573 73.5725 50.6533 73.7005 50.776C73.8285 50.8987 73.9272 51.0427 73.9965 51.208C74.0712 51.3733 74.1085 51.552 74.1085 51.744C74.1085 51.936 74.0712 52.1173 73.9965 52.288C73.9272 52.4533 73.8285 52.5973 73.7005 52.72C73.5725 52.8427 73.4232 52.9387 73.2525 53.008C73.0818 53.0773 72.8978 53.112 72.7005 53.112C72.4978 53.112 72.3112 53.0773 72.1405 53.008C71.9698 52.9387 71.8205 52.8427 71.6925 52.72C71.5698 52.5973 71.4712 52.4533 71.3965 52.288C71.3272 52.1173 71.2925 51.936 71.2925 51.744ZM78.5138 53H75.7938V41.344H78.5138V53ZM91.2548 47.168C91.2548 48.0107 91.1081 48.7893 90.8148 49.504C90.5268 50.2133 90.1188 50.8293 89.5908 51.352C89.0628 51.8693 88.4254 52.2747 87.6788 52.568C86.9374 52.856 86.1134 53 85.2068 53H80.6788V41.344H85.2068C86.1134 41.344 86.9374 41.4907 87.6788 41.784C88.4254 42.0773 89.0628 42.4827 89.5908 43C90.1188 43.5173 90.5268 44.1333 90.8148 44.848C91.1081 45.5573 91.2548 46.3307 91.2548 47.168ZM88.4868 47.168C88.4868 46.592 88.4121 46.072 88.2628 45.608C88.1134 45.144 87.8974 44.752 87.6148 44.432C87.3374 44.1067 86.9961 43.8587 86.5908 43.688C86.1854 43.512 85.7241 43.424 85.2068 43.424H83.3988V50.92H85.2068C85.7241 50.92 86.1854 50.8347 86.5908 50.664C86.9961 50.488 87.3374 50.24 87.6148 49.92C87.8974 49.5947 88.1134 49.2 88.2628 48.736C88.4121 48.272 88.4868 47.7493 88.4868 47.168Z" fill="#02BAD3"/>
<path d="M49.5346 8.83038C47.6041 9.06295 45.6535 8.60191 44.0368 7.53098C43.9339 7.46256 43.8141 7.42319 43.6904 7.41709C43.5666 7.411 43.4435 7.4384 43.3342 7.49638C43.225 7.55435 43.1337 7.64069 43.0702 7.74615C43.0067 7.85161 42.9734 7.97221 42.9739 8.095V9.73963L42.9798 12.7876C43.7455 12.6878 45.4415 12.2469 46.8184 11.4333C48.0787 10.6913 49.0786 9.42018 49.5346 8.83038Z" fill="#09BAD3"/>
<path d="M42.1501 7.99189C40.4558 7.78226 39.1477 9.08249 39.1871 10.2563C39.2258 11.3901 40.5255 12.5689 42.1501 12.3526" fill="#09BAD3"/>
<path d="M40.3039 14.85C38.6096 14.6412 37.3015 15.9414 37.341 17.1152C37.3787 18.2491 38.6784 19.4279 40.3039 19.2116" fill="#09BAD3"/>
<path d="M35.0615 25.3841C34.1124 24.6392 33.2728 23.7667 32.567 22.7919C31.8575 21.8005 31.2828 20.7209 30.8576 19.5808L30.8156 19.4744L30.7803 19.3654L30.7081 19.1483C30.6611 19.0027 30.6099 18.8588 30.5663 18.7124L30.447 18.269L30.3874 18.0477C30.3689 17.9736 30.3547 17.8979 30.3387 17.8231C30.2749 17.5244 30.2052 17.225 30.1708 16.9213C30.1481 16.7691 30.1238 16.6177 30.1036 16.4663L30.0583 16.0087C30.0205 15.7034 30.0188 15.3973 30.0054 15.0937C29.997 14.9406 29.9995 14.7875 30.0054 14.6336C30.0113 14.4797 30.0054 14.3267 30.0146 14.1736C30.0394 13.5601 30.1042 12.9487 30.2086 12.3435C30.6261 9.91239 31.6835 7.63346 33.274 5.73666C34.059 4.80278 34.9652 3.97592 35.9691 3.27761C36.4645 2.93277 36.9835 2.62256 37.5224 2.34923C38.0589 2.07778 38.6152 1.84643 39.1865 1.6571C38.1664 2.25358 37.2081 2.94793 36.3251 3.73016C35.461 4.50215 34.6837 5.36456 34.007 6.30234C32.6645 8.15809 31.7643 10.2913 31.374 12.5415C31.2738 13.0998 31.2087 13.6638 31.1792 14.2302C31.0834 15.9387 31.274 17.6512 31.7434 19.298C32.0661 20.4055 32.5074 21.4755 33.0599 22.4899C33.6328 23.5154 34.3031 24.4845 35.0615 25.3841Z" fill="#09BAD3"/>
<path d="M59.6611 17.8447C59.6242 18.15 59.5889 18.4587 59.5293 18.7598C59.4697 19.0609 59.4 19.3671 59.3278 19.6707C59.1671 20.2755 58.9646 20.8687 58.7216 21.4459C58.4729 22.0263 58.1854 22.5897 57.861 23.1322C57.7813 23.2686 57.6931 23.4009 57.6091 23.534L57.4798 23.7336L57.3421 23.9275C57.2498 24.0564 57.1625 24.1895 57.0642 24.3143L56.7695 24.6903C55.1504 26.6918 53.0135 28.2206 50.5865 29.1135C48.1595 30.0064 45.5334 30.2301 42.9882 29.7606C41.7346 29.5297 40.5195 29.1271 39.3779 28.5644C38.2499 28.0098 37.2105 27.2937 36.2932 26.4389C38.4065 27.7441 40.7431 28.5802 43.1301 28.8439C45.5113 29.121 47.9249 28.8344 50.1726 28.0078C52.4203 27.1812 54.438 25.8381 56.0601 24.0888C57.7164 22.3003 58.9469 20.1666 59.6611 17.8447Z" fill="#09BAD3"/>
<path d="M59.8903 16.3415C59.8852 16.0404 59.8802 15.7417 59.8609 15.4431C59.8525 15.2942 59.8432 15.1461 59.8315 14.9972C59.8197 14.8483 59.8004 14.7019 59.7861 14.5538C59.7719 14.4057 59.7576 14.2593 59.7374 14.1129L59.6711 13.6745L59.6384 13.4557L59.5964 13.2386L59.5124 12.806C59.2666 11.6653 58.8953 10.5548 58.405 9.49429C57.9133 8.44722 57.3065 7.45711 56.5956 6.54194C56.2393 6.08848 55.8572 5.65548 55.4513 5.24504C55.2531 5.0354 55.039 4.84157 54.8291 4.64359C54.7267 4.54293 54.6117 4.45475 54.5033 4.35991C54.395 4.26508 54.2859 4.16941 54.1717 4.08207C53.9425 3.90654 53.7217 3.7202 53.4824 3.55798C53.3648 3.47479 53.2481 3.3916 53.1289 3.30841L52.7645 3.07466L52.5832 2.9557L52.3951 2.84838L52.0206 2.6296C51.8938 2.55972 51.7645 2.49483 51.6369 2.42745C51.5093 2.36007 51.385 2.29019 51.2499 2.23113C50.2037 1.72233 49.1019 1.33461 47.9662 1.07564C46.8182 0.815334 45.6452 0.678391 44.4675 0.667188C43.2701 0.660039 42.075 0.774044 40.9009 1.00743C42.0276 0.531515 43.2184 0.221004 44.4356 0.0857029C45.6696 -0.0501358 46.9162 -0.0244037 48.1433 0.162236C48.2978 0.181369 48.4506 0.212981 48.6034 0.245424L49.0627 0.334435L49.5169 0.448404C49.668 0.48667 49.82 0.524105 49.9686 0.572354L50.417 0.709615C50.4917 0.731243 50.5647 0.758695 50.6386 0.786148L50.8586 0.869336C51.0039 0.925904 51.1533 0.973321 51.2969 1.03571L51.7318 1.2154C52.8762 1.72674 53.9487 2.38332 54.9223 3.16866C55.893 3.95853 56.7583 4.86759 57.4974 5.87394L57.7627 6.25827L57.8945 6.45043C57.9373 6.51532 57.9785 6.58187 58.0188 6.64759L58.2631 7.0444C58.342 7.17833 58.4134 7.31642 58.489 7.45202C58.6426 7.72155 58.7719 8.00439 58.9088 8.2839L58.9583 8.38872L59.0036 8.49603L59.0926 8.70983C59.1506 8.85374 59.2152 8.99433 59.2673 9.13991C59.7013 10.2926 59.978 11.4976 60.0901 12.7228L60.1195 13.1795L60.1337 13.4075V13.6362V14.0921C60.1337 14.2435 60.1203 14.3957 60.1136 14.5471C60.089 15.1503 60.0143 15.7505 59.8903 16.3415Z" fill="#09BAD3"/>
<path d="M39.6415 1.76023L37.8069 4.81989C37.7912 4.84654 37.7668 4.86714 37.7377 4.87836C37.7087 4.88957 37.6767 4.89076 37.6469 4.88171C37.617 4.87267 37.5912 4.85393 37.5735 4.82852C37.5557 4.80311 37.5472 4.77252 37.5492 4.7417C37.5928 3.93228 37.6012 3.41069 37.6634 2.44571L35.7558 1.89167C35.7122 1.87923 35.6745 1.85179 35.6495 1.81428C35.6245 1.77677 35.6138 1.73166 35.6194 1.68705C35.6249 1.64243 35.6464 1.60125 35.6798 1.5709C35.7133 1.54056 35.7566 1.52303 35.8019 1.52148L39.4123 1.3809C39.4581 1.37831 39.5039 1.38821 39.5445 1.40954C39.5851 1.43086 39.6191 1.46279 39.6427 1.50186C39.6663 1.54094 39.6787 1.58567 39.6784 1.63122C39.6782 1.67676 39.6654 1.72138 39.6415 1.76023Z" fill="#09BAD3"/>
<path d="M59.6881 16.408L57.8611 13.3425C57.8455 13.316 57.8394 13.285 57.8436 13.2546C57.8478 13.2242 57.862 13.196 57.8842 13.1746C57.9063 13.1531 57.9351 13.1396 57.9659 13.1361C57.9967 13.1326 58.0277 13.1394 58.0542 13.1554C58.7502 13.5821 59.2061 13.8383 60.0323 14.3574L61.4378 12.9649C61.4696 12.9326 61.512 12.9127 61.5574 12.9087C61.6027 12.9047 61.648 12.917 61.685 12.9432C61.722 12.9694 61.7484 13.0079 61.7592 13.0517C61.7701 13.0955 61.7648 13.1417 61.7442 13.182L60.1347 16.3889C60.1153 16.4303 60.0847 16.4657 60.0463 16.4911C60.008 16.5165 59.9633 16.5309 59.9173 16.5329C59.8712 16.5349 59.8254 16.5243 59.785 16.5023C59.7446 16.4802 59.7111 16.4476 59.6881 16.408Z" fill="#09BAD3"/>
<path d="M36.1346 25.884L39.708 26.2442C39.739 26.2472 39.7681 26.2604 39.7906 26.2818C39.8131 26.3032 39.8276 26.3314 39.8319 26.362C39.8362 26.3926 39.8299 26.4237 39.8141 26.4504C39.7983 26.477 39.7739 26.4976 39.7449 26.5088C38.9893 26.8107 38.5065 27.0212 37.5947 27.3723C37.6937 28.0217 37.7925 28.6708 37.8911 29.3197C37.8983 29.3642 37.8893 29.4099 37.8655 29.4484C37.8417 29.4868 37.8048 29.5156 37.7615 29.5295C37.7182 29.5434 37.6713 29.5414 37.6293 29.524C37.5873 29.5066 37.553 29.4748 37.5325 29.4345L35.8836 26.2484C35.8622 26.2082 35.8523 26.1631 35.8549 26.1178C35.8575 26.0725 35.8725 26.0288 35.8983 25.9913C35.9242 25.9538 35.9598 25.924 36.0014 25.9051C36.0431 25.8862 36.0891 25.8789 36.1346 25.884Z" fill="#09BAD3"/>
<path fill-rule="evenodd" clip-rule="evenodd" d="M41.0327 20.1632V14.6337C41.0336 14.3637 41.1424 14.1049 41.3353 13.9141C41.5282 13.7233 41.7895 13.6159 42.0621 13.6155C43.6865 13.6093 45.2847 13.2096 46.7174 12.4511C48.1501 11.6926 49.3738 10.5984 50.2818 9.26392C50.4389 9.39834 51.3268 10.179 52.0814 11.4592C51.7622 11.9741 51.1539 12.6625 50.4287 13.2927C49.1575 14.3999 47.0283 14.9224 46.3415 15.0605C47.0887 15.0255 49.1961 14.7111 50.6109 13.9199C51.3285 13.5016 51.9835 12.9863 52.557 12.3891C52.8937 13.1613 53.1435 14.058 53.1875 15.0588C52.8851 15.3529 52.5563 15.6202 52.2046 15.8573C50.8041 16.7982 48.6262 17.0544 47.9276 17.1052C48.6732 17.1634 50.8058 17.111 52.307 16.5004C52.5995 16.381 52.8839 16.2442 53.1588 16.091L53.1541 16.1369C53.1227 16.4379 52.9964 17.4661 52.4848 18.6089C51.3581 19.0386 50.1881 19.218 49.711 19.2739C50.1852 19.2908 51.2141 19.2415 52.2794 19.0321C51.8072 19.9312 51.0829 20.854 49.972 21.5167C47.3726 23.0682 43.7018 22.5707 41.0327 20.1632Z" fill="#09BAD3"/>
</svg>
