<?xml version="1.0" encoding="UTF-8"?>
<!DOCTYPE svg PUBLIC "-//W3C//DTD SVG 1.1//EN" "http://www.w3.org/Graphics/SVG/1.1/DTD/svg11.dtd">
<!-- Creator: CorelDRAW X8 -->
<svg xmlns="http://www.w3.org/2000/svg" xml:space="preserve" width="8.5in" height="11in" version="1.1" style="shape-rendering:geometricPrecision; text-rendering:geometricPrecision; image-rendering:optimizeQuality; fill-rule:evenodd; clip-rule:evenodd"
viewBox="0 0 8500 11000"
 xmlns:xlink="http://www.w3.org/1999/xlink">
 <defs>
  <style type="text/css">
   <![CDATA[
    .fil0 {fill:#02BAD3}
    .fil1 {fill:#09BAD3}
   ]]>
  </style>
 </defs>
 <g id="Layer_x0020_1">
  <metadata id="CorelCorpID_0Corel-Layer"/>
  <path class="fil0" d="M3918 5509c0,13 -2,25 -6,36 -5,11 -11,21 -19,29 -8,8 -18,14 -29,18 -11,5 -23,7 -37,7l-69 0 0 -181 69 0c14,0 26,2 37,7 11,4 21,11 29,19 8,8 14,17 19,28 4,11 6,23 6,37zm-34 0c0,-10 -1,-19 -4,-27 -3,-8 -6,-15 -11,-20 -5,-6 -11,-10 -18,-13 -7,-3 -15,-4 -24,-4l-35 0 0 127 35 0c9,0 17,-1 24,-4 7,-3 13,-7 18,-13 5,-5 8,-12 11,-20 3,-8 4,-16 4,-26zm133 63c7,0 13,-1 18,-3 5,-3 9,-6 13,-10 3,-3 6,-8 8,-14 2,-5 3,-12 3,-19l0 -108 33 0 0 108c0,11 -1,21 -5,30 -3,9 -8,17 -15,24 -6,7 -14,12 -23,15 -10,4 -20,6 -32,6 -11,0 -22,-2 -31,-6 -9,-3 -17,-8 -24,-15 -6,-7 -11,-15 -14,-24 -4,-9 -6,-19 -6,-30l0 -108 34 0 0 108c0,7 1,14 3,19 2,6 4,10 8,14 3,4 8,7 13,10 5,2 11,3 17,3zm200 -48c2,3 3,5 4,8 1,3 3,6 4,9 1,-3 2,-6 3,-9 2,-3 3,-6 4,-8l54 -100c1,-2 1,-3 2,-3 1,-1 1,-2 2,-2 1,0 2,-1 3,-1 1,0 3,0 4,0l25 0 0 181 -29 0 0 -117c0,-2 0,-4 0,-7 0,-2 0,-5 1,-8l-55 103c-1,2 -3,4 -5,5 -2,1 -4,2 -7,2l-5 0c-2,0 -5,-1 -7,-2 -2,-1 -3,-3 -4,-5l-56 -103c1,3 1,5 1,8 0,3 0,5 0,7l0 117 -30 0 0 -181 26 0c1,0 3,0 4,0 1,0 2,1 3,1 1,0 1,1 2,2 1,0 2,1 2,3l54 100zm301 75l-26 0c-3,0 -6,-1 -7,-2 -2,-2 -4,-3 -4,-6l-14 -37 -75 0 -13 37c-1,2 -2,4 -4,6 -2,1 -5,2 -7,2l-27 0 71 -181 35 0 71 181zm-117 -68l57 0 -22 -60c-1,-3 -2,-6 -3,-10 -1,-3 -2,-7 -3,-12 -2,5 -3,9 -4,12 -1,4 -2,7 -3,10l-22 60zm232 -80c-1,2 -2,3 -3,4 -1,1 -3,1 -4,1 -2,0 -4,-1 -6,-2 -2,-1 -4,-3 -7,-4 -3,-2 -6,-3 -10,-4 -4,-2 -8,-2 -14,-2 -4,0 -8,0 -12,1 -3,1 -6,3 -9,5 -2,2 -4,4 -5,7 -1,3 -2,6 -2,9 0,5 2,8 4,11 2,3 5,5 9,7 4,2 9,4 14,6 5,1 10,3 15,5 5,1 10,4 15,6 5,2 10,5 14,9 4,4 7,8 9,13 3,5 4,12 4,19 0,9 -2,16 -4,23 -3,7 -7,14 -13,19 -5,5 -12,9 -19,12 -8,3 -17,5 -27,5 -6,0 -11,-1 -17,-2 -6,-1 -11,-2 -16,-5 -5,-2 -10,-4 -14,-7 -5,-3 -9,-6 -12,-10l9 -16c1,-1 2,-2 4,-3 1,-1 2,-1 4,-1 2,0 4,1 7,3 2,1 5,3 8,5 4,2 7,4 12,6 4,2 10,2 16,2 10,0 17,-2 22,-6 6,-5 8,-11 8,-20 0,-5 -1,-9 -3,-12 -3,-3 -6,-5 -10,-7 -4,-2 -8,-4 -13,-5 -5,-2 -10,-3 -15,-5 -6,-2 -11,-4 -16,-6 -5,-2 -9,-5 -13,-9 -4,-4 -7,-8 -10,-14 -2,-6 -3,-13 -3,-21 0,-6 1,-13 4,-19 2,-6 6,-12 11,-17 5,-5 12,-8 19,-11 7,-3 16,-5 25,-5 11,0 21,2 30,5 9,4 16,8 23,14l-9 16zm72 43l8 0c3,0 6,0 8,-1 2,-1 4,-3 5,-5l50 -63c2,-2 4,-4 7,-5 2,-1 5,-2 8,-2l29 0 -60 75c-2,3 -4,5 -6,6 -2,2 -4,3 -6,4 3,1 6,3 8,4 2,2 4,5 6,7l63 85 -30 0c-4,0 -7,-1 -9,-2 -2,-1 -3,-2 -5,-5l-51 -66c-1,-3 -3,-4 -5,-5 -2,-1 -5,-2 -9,-2l-11 0 0 80 -33 0 0 -181 33 0 0 76zm131 88c0,-3 0,-5 1,-7 1,-3 3,-5 4,-6 2,-2 4,-3 6,-4 3,-1 5,-2 8,-2 2,0 5,1 7,2 3,1 5,2 6,4 2,1 3,3 4,6 1,2 2,4 2,7 0,3 -1,5 -2,7 -1,3 -2,5 -4,6 -1,2 -3,3 -6,4 -2,1 -5,2 -7,2 -3,0 -5,-1 -8,-2 -2,-1 -4,-2 -6,-4 -1,-1 -3,-3 -4,-6 -1,-2 -1,-4 -1,-7zm103 17l-34 0 0 -181 34 0 0 181zm201 -90c0,13 -2,25 -6,36 -5,11 -11,21 -19,29 -8,8 -18,14 -29,18 -11,5 -24,7 -37,7l-69 0 0 -181 69 0c13,0 26,2 37,7 11,4 21,11 29,19 8,8 14,17 19,28 4,11 6,23 6,37zm-34 0c0,-10 -1,-19 -4,-27 -3,-8 -7,-15 -11,-20 -5,-6 -11,-10 -18,-13 -7,-3 -15,-4 -24,-4l-35 0 0 127 35 0c9,0 17,-1 24,-4 7,-3 13,-7 18,-13 4,-5 8,-12 11,-20 3,-8 4,-16 4,-26z"/>
  <g id="_194941642784">
   <path class="fil1" d="M3554 5457c-16,2 -32,-2 -45,-11 -1,-1 -2,-1 -3,-1 -1,0 -2,0 -3,0 -1,1 -2,2 -3,2 0,1 0,2 0,3l0 14 0 26c6,-1 20,-5 32,-11 10,-7 19,-17 22,-22z"/>
   <g>
    <path class="fil1" d="M3493 5449c-14,-1 -25,10 -25,20 0,9 11,19 25,17l0 -37zm0 0l0 0 0 0z"/>
   </g>
   <g>
    <path class="fil1" d="M3477 5507c-14,-1 -25,10 -24,19 0,10 11,20 24,18l0 -37zm0 0l0 0 0 0z"/>
   </g>
   <path class="fil1" d="M3434 5596c-8,-6 -15,-13 -21,-22 -6,-8 -11,-17 -15,-27l0 -1 0 -1 -1 -1c0,-2 -1,-3 -1,-4l-1 -4 -1 -2c0,0 0,-1 0,-2 0,-2 -1,-5 -1,-7 0,-1 -1,-3 -1,-4l0 -4c-1,-2 -1,-5 -1,-8 0,-1 0,-2 0,-4 0,-1 0,-2 0,-3 1,-6 1,-11 2,-16 3,-20 12,-40 26,-56 6,-7 14,-14 22,-20 4,-3 9,-6 13,-8 5,-2 9,-4 14,-6 -9,5 -17,11 -24,18 -7,6 -14,13 -19,21 -11,16 -19,34 -22,53 -1,5 -2,9 -2,14 -1,15 1,29 5,43 3,9 6,18 11,27 5,8 10,17 17,24z"/>
   <path class="fil1" d="M3639 5533c0,2 -1,5 -1,7 -1,3 -1,5 -2,8 -1,5 -3,10 -5,15 -2,5 -4,10 -7,14 -1,1 -1,2 -2,4l-1 1 -1 2c-1,1 -2,2 -3,3l-2 3c-14,17 -31,30 -52,38 -20,7 -42,9 -63,5 -11,-2 -21,-5 -30,-10 -10,-5 -18,-11 -26,-18 18,11 37,18 57,20 20,3 40,0 59,-7 19,-7 35,-18 49,-33 14,-15 24,-33 30,-52z"/>
   <path class="fil1" d="M3641 5520c0,-3 0,-5 0,-8 0,-1 0,-2 0,-3 -1,-2 -1,-3 -1,-4 0,-1 0,-3 0,-4l-1 -4 0 -1 0 -2 -1 -4c-2,-10 -5,-19 -9,-28 -5,-9 -10,-17 -16,-25 -3,-4 -6,-7 -9,-11 -2,-1 -4,-3 -5,-5 -1,-1 -2,-1 -3,-2 -1,-1 -2,-2 -3,-2 -2,-2 -4,-4 -6,-5 -1,-1 -1,-1 -2,-2l-4 -2 -1 -1 -2 -1 -3 -2c-1,0 -2,-1 -3,-1 -1,-1 -2,-2 -3,-2 -9,-4 -18,-8 -28,-10 -9,-2 -19,-3 -29,-3 -10,0 -20,1 -30,3 10,-4 20,-7 30,-8 10,-1 21,-1 31,0 1,1 2,1 4,1l4 1 3 1c2,0 3,1 4,1l4 1c0,0 1,0 2,1l2 0c1,1 2,1 3,2l4 1c9,5 18,10 26,17 9,6 16,14 22,23l2 3 1 1c1,1 1,2 1,2l2 3c1,2 2,3 2,4 2,2 3,5 4,7l0 1 1 1 0 2c1,1 1,2 2,3 3,10 6,20 7,30l0 4 0 2 0 2 0 4c0,1 0,2 0,4 0,5 -1,10 -2,15z"/>
   <path class="fil1" d="M3472 5397l-16 26c0,0 0,0 0,0 0,0 -1,0 -1,0 0,0 0,0 0,0 -1,0 -1,-1 -1,-1 1,-7 1,-11 1,-19l-16 -5c0,0 0,0 -1,-1 0,0 0,0 0,-1 0,0 0,0 1,-1 0,0 0,0 1,0l30 -1c0,0 1,0 1,0 0,0 1,0 1,1 0,0 0,0 0,1 0,0 0,1 0,1z"/>
   <path class="fil1" d="M3639 5520l-15 -25c0,-1 0,-1 0,-1 0,0 0,-1 0,-1 0,0 1,0 1,0 0,0 0,0 1,0 5,4 9,6 16,10l12 -12c0,0 1,0 1,0 0,0 1,0 1,0 0,0 1,1 1,1 0,1 0,1 -1,1l-13 27c0,1 0,1 -1,1 0,0 0,0 -1,1 0,0 -1,-1 -1,-1 0,0 0,0 -1,-1z"/>
   <path class="fil1" d="M3443 5600l29 3c1,0 1,1 1,1 0,0 0,0 0,0 0,1 0,1 0,1 0,0 0,1 0,1 -7,2 -11,4 -18,7 1,5 1,11 2,16 0,1 0,1 0,1 0,1 -1,1 -1,1 0,0 -1,0 -1,0 0,0 -1,0 -1,-1l-14 -27c0,0 0,0 0,-1 0,0 0,0 1,-1 0,0 0,0 0,0 1,-1 1,-1 2,-1z"/>
   <path class="fil1" d="M3483 5552l0 -47c0,-2 1,-4 3,-6 2,-1 4,-2 6,-2 14,0 27,-4 39,-10 12,-6 22,-16 30,-27 1,1 8,8 15,19 -3,4 -8,10 -14,15 -11,10 -28,14 -34,15 6,0 24,-3 35,-10 6,-3 12,-7 17,-12 3,6 5,14 5,22 -3,3 -5,5 -8,7 -12,8 -30,10 -36,10 6,1 24,0 37,-5 2,-1 4,-2 7,-3 0,0 0,0 0,0 -1,3 -2,11 -6,21 -9,4 -19,5 -23,6 4,0 13,-1 21,-2 -4,7 -10,15 -19,21 -22,13 -52,8 -75,-12z"/>
  </g>
 </g>
</svg>
