<svg width="174" height="29" viewBox="0 0 174 29" fill="none" xmlns="http://www.w3.org/2000/svg">
<path d="M8.08057 14.0754V22.5376C12.1272 26.2224 17.6929 26.9833 21.634 24.6094C25.7607 22.1241 26.368 17.2498 26.459 16.3763C27.0906 10.2863 22.5603 6.25298 22.1032 5.85916C20.5854 8.10346 18.4947 9.90077 16.048 11.0647C14.0445 12.0118 11.8575 12.508 9.64135 12.5181C9.2281 12.5184 8.83181 12.6825 8.53927 12.9744C8.24674 13.2663 8.08179 13.6622 8.08057 14.0754Z" fill="#02BAD3"/>
<path d="M20.9705 5.19563C19.1428 5.41614 17.289 5.22632 15.544 4.63999C14.5154 4.2927 13.5371 3.811 12.6347 3.20739C12.4787 3.10279 12.2972 3.04261 12.1096 3.03329C11.922 3.02397 11.7354 3.06586 11.5697 3.15448C11.4041 3.2431 11.2657 3.3751 11.1694 3.53635C11.0731 3.6976 11.0224 3.88202 11.0229 4.06985L11.0281 6.58647L11.0374 11.252C12.1974 11.0995 14.7703 10.4249 16.8577 9.18023C18.7636 8.04285 20.2791 6.09405 20.9705 5.19563Z" fill="#02BAD3"/>
<path d="M9.77415 3.91151C7.20533 3.59135 5.22 5.58133 5.28206 7.37817C5.34006 9.11295 7.31205 10.9162 9.77415 10.5856" fill="#02BAD3"/>
<path d="M6.97452 14.4072C4.40802 14.087 2.4221 16.077 2.48242 17.8738C2.54042 19.6086 4.51242 21.4118 6.97452 21.0812" fill="#02BAD3"/>
<path d="M22.149 11.1232C22.6593 11.1232 23.073 10.7096 23.073 10.1993C23.073 9.68902 22.6593 9.27536 22.149 9.27536C21.6388 9.27536 21.2251 9.68902 21.2251 10.1993C21.2251 10.7096 21.6388 11.1232 22.149 11.1232Z" fill="white"/>
<path d="M55.16 15.324C55.16 16.596 54.948 17.764 54.524 18.828C54.1 19.892 53.504 20.808 52.736 21.576C51.968 22.344 51.044 22.94 49.964 23.364C48.884 23.788 47.688 24 46.376 24H39.752V6.648H46.376C47.688 6.648 48.884 6.864 49.964 7.296C51.044 7.72 51.968 8.316 52.736 9.084C53.504 9.844 54.1 10.756 54.524 11.82C54.948 12.884 55.16 14.052 55.16 15.324ZM51.86 15.324C51.86 14.372 51.732 13.52 51.476 12.768C51.22 12.008 50.856 11.368 50.384 10.848C49.912 10.32 49.336 9.916 48.656 9.636C47.984 9.356 47.224 9.216 46.376 9.216H43.004V21.432H46.376C47.224 21.432 47.984 21.292 48.656 21.012C49.336 20.732 49.912 20.332 50.384 19.812C50.856 19.284 51.22 18.644 51.476 17.892C51.732 17.132 51.86 16.276 51.86 15.324ZM64.6657 21.396C65.2897 21.396 65.8457 21.292 66.3337 21.084C66.8297 20.876 67.2457 20.584 67.5817 20.208C67.9257 19.832 68.1857 19.376 68.3617 18.84C68.5457 18.304 68.6377 17.704 68.6377 17.04V6.648H71.8657V17.04C71.8657 18.072 71.6977 19.028 71.3617 19.908C71.0337 20.78 70.5577 21.536 69.9337 22.176C69.3097 22.808 68.5537 23.304 67.6657 23.664C66.7777 24.016 65.7777 24.192 64.6657 24.192C63.5537 24.192 62.5537 24.016 61.6657 23.664C60.7777 23.304 60.0217 22.808 59.3977 22.176C58.7817 21.536 58.3057 20.78 57.9697 19.908C57.6417 19.028 57.4777 18.072 57.4777 17.04V6.648H60.7057V17.028C60.7057 17.692 60.7937 18.292 60.9697 18.828C61.1537 19.364 61.4137 19.824 61.7497 20.208C62.0857 20.584 62.4977 20.876 62.9857 21.084C63.4817 21.292 64.0417 21.396 64.6657 21.396ZM83.8546 16.8C83.9906 17.056 84.1146 17.324 84.2266 17.604C84.3466 17.876 84.4626 18.152 84.5746 18.432C84.6866 18.144 84.8026 17.86 84.9226 17.58C85.0426 17.3 85.1706 17.032 85.3066 16.776L90.4426 7.164C90.5066 7.044 90.5706 6.948 90.6346 6.876C90.7066 6.804 90.7826 6.752 90.8626 6.72C90.9506 6.688 91.0466 6.668 91.1506 6.66C91.2546 6.652 91.3786 6.648 91.5226 6.648H93.9586V24H91.1146V12.792C91.1146 12.584 91.1186 12.356 91.1266 12.108C91.1426 11.86 91.1626 11.608 91.1866 11.352L85.9426 21.192C85.8226 21.416 85.6666 21.592 85.4746 21.72C85.2826 21.84 85.0586 21.9 84.8026 21.9H84.3586C84.1026 21.9 83.8786 21.84 83.6866 21.72C83.4946 21.592 83.3386 21.416 83.2186 21.192L77.9026 11.316C77.9346 11.58 77.9546 11.84 77.9626 12.096C77.9786 12.344 77.9866 12.576 77.9866 12.792V24H75.1426V6.648H77.5786C77.7226 6.648 77.8466 6.652 77.9506 6.66C78.0546 6.668 78.1466 6.688 78.2266 6.72C78.3146 6.752 78.3946 6.804 78.4666 6.876C78.5386 6.948 78.6066 7.044 78.6706 7.164L83.8546 16.8ZM112.707 24H110.211C109.931 24 109.699 23.932 109.515 23.796C109.339 23.652 109.211 23.476 109.131 23.268L107.835 19.728H100.647L99.3511 23.268C99.2871 23.452 99.1591 23.62 98.9671 23.772C98.7831 23.924 98.5551 24 98.2831 24H95.7751L102.591 6.648H105.891L112.707 24ZM101.475 17.448H107.007L104.895 11.676C104.799 11.42 104.691 11.12 104.571 10.776C104.459 10.424 104.347 10.044 104.235 9.636C104.123 10.044 104.011 10.424 103.899 10.776C103.795 11.128 103.691 11.436 103.587 11.7L101.475 17.448ZM123.794 9.804C123.706 9.98 123.602 10.104 123.482 10.176C123.37 10.248 123.234 10.284 123.074 10.284C122.914 10.284 122.734 10.224 122.534 10.104C122.334 9.976 122.098 9.836 121.826 9.684C121.554 9.532 121.234 9.396 120.866 9.276C120.506 9.148 120.078 9.084 119.582 9.084C119.134 9.084 118.742 9.14 118.406 9.252C118.078 9.356 117.798 9.504 117.566 9.696C117.342 9.888 117.174 10.12 117.062 10.392C116.95 10.656 116.894 10.948 116.894 11.268C116.894 11.676 117.006 12.016 117.23 12.288C117.462 12.56 117.766 12.792 118.142 12.984C118.518 13.176 118.946 13.348 119.426 13.5C119.906 13.652 120.394 13.816 120.89 13.992C121.394 14.16 121.886 14.36 122.366 14.592C122.846 14.816 123.274 15.104 123.65 15.456C124.026 15.8 124.326 16.224 124.55 16.728C124.782 17.232 124.898 17.844 124.898 18.564C124.898 19.348 124.762 20.084 124.49 20.772C124.226 21.452 123.834 22.048 123.314 22.56C122.802 23.064 122.174 23.464 121.43 23.76C120.686 24.048 119.834 24.192 118.874 24.192C118.322 24.192 117.778 24.136 117.242 24.024C116.706 23.92 116.19 23.768 115.694 23.568C115.206 23.368 114.746 23.128 114.314 22.848C113.89 22.568 113.51 22.256 113.174 21.912L114.11 20.364C114.198 20.252 114.302 20.16 114.422 20.088C114.55 20.008 114.69 19.968 114.842 19.968C115.042 19.968 115.258 20.052 115.49 20.22C115.722 20.38 115.994 20.56 116.306 20.76C116.626 20.96 116.998 21.144 117.422 21.312C117.854 21.472 118.37 21.552 118.97 21.552C119.89 21.552 120.602 21.336 121.106 20.904C121.61 20.464 121.862 19.836 121.862 19.02C121.862 18.564 121.746 18.192 121.514 17.904C121.29 17.616 120.99 17.376 120.614 17.184C120.238 16.984 119.81 16.816 119.33 16.68C118.85 16.544 118.362 16.396 117.866 16.236C117.37 16.076 116.882 15.884 116.402 15.66C115.922 15.436 115.494 15.144 115.118 14.784C114.742 14.424 114.438 13.976 114.206 13.44C113.982 12.896 113.87 12.228 113.87 11.436C113.87 10.804 113.994 10.188 114.242 9.588C114.498 8.988 114.866 8.456 115.346 7.992C115.834 7.528 116.43 7.156 117.134 6.876C117.838 6.596 118.642 6.456 119.546 6.456C120.57 6.456 121.514 6.616 122.378 6.936C123.242 7.256 123.978 7.704 124.586 8.28L123.794 9.804ZM130.697 13.92H131.453C131.757 13.92 132.009 13.88 132.209 13.8C132.409 13.712 132.581 13.576 132.725 13.392L137.513 7.332C137.713 7.076 137.921 6.9 138.137 6.804C138.361 6.7 138.641 6.648 138.977 6.648H141.761L135.917 13.86C135.733 14.084 135.557 14.272 135.389 14.424C135.221 14.576 135.041 14.7 134.849 14.796C135.113 14.892 135.349 15.028 135.557 15.204C135.773 15.38 135.981 15.604 136.181 15.876L142.205 24H139.349C138.965 24 138.677 23.948 138.485 23.844C138.301 23.732 138.145 23.572 138.017 23.364L133.109 16.956C132.949 16.748 132.769 16.6 132.569 16.512C132.369 16.416 132.085 16.368 131.717 16.368H130.697V24H127.469V6.636H130.697V13.92ZM143.243 22.368C143.243 22.12 143.287 21.884 143.375 21.66C143.471 21.436 143.599 21.244 143.759 21.084C143.927 20.924 144.123 20.796 144.347 20.7C144.571 20.604 144.811 20.556 145.067 20.556C145.315 20.556 145.551 20.604 145.775 20.7C145.999 20.796 146.191 20.924 146.351 21.084C146.511 21.244 146.639 21.436 146.735 21.66C146.831 21.884 146.879 22.12 146.879 22.368C146.879 22.624 146.831 22.864 146.735 23.088C146.639 23.304 146.511 23.492 146.351 23.652C146.191 23.812 145.999 23.936 145.775 24.024C145.551 24.12 145.315 24.168 145.067 24.168C144.811 24.168 144.571 24.12 144.347 24.024C144.123 23.936 143.927 23.812 143.759 23.652C143.599 23.492 143.471 23.304 143.375 23.088C143.287 22.864 143.243 22.624 143.243 22.368ZM153.146 24H149.906V6.648H153.146V24ZM172.465 15.324C172.465 16.596 172.253 17.764 171.829 18.828C171.405 19.892 170.809 20.808 170.041 21.576C169.273 22.344 168.349 22.94 167.269 23.364C166.189 23.788 164.993 24 163.681 24H157.057V6.648H163.681C164.993 6.648 166.189 6.864 167.269 7.296C168.349 7.72 169.273 8.316 170.041 9.084C170.809 9.844 171.405 10.756 171.829 11.82C172.253 12.884 172.465 14.052 172.465 15.324ZM169.165 15.324C169.165 14.372 169.037 13.52 168.781 12.768C168.525 12.008 168.161 11.368 167.689 10.848C167.217 10.32 166.641 9.916 165.961 9.636C165.289 9.356 164.529 9.216 163.681 9.216H160.309V21.432H163.681C164.529 21.432 165.289 21.292 165.961 21.012C166.641 20.732 167.217 20.332 167.689 19.812C168.161 19.284 168.525 18.644 168.781 17.892C169.037 17.132 169.165 16.276 169.165 15.324Z" fill="#02BAD3"/>
</svg>
