<?xml version="1.0" encoding="UTF-8"?>
<!DOCTYPE svg PUBLIC "-//W3C//DTD SVG 1.1//EN" "http://www.w3.org/Graphics/SVG/1.1/DTD/svg11.dtd">
<!-- Creator: CorelDRAW X8 -->
<svg xmlns="http://www.w3.org/2000/svg" xml:space="preserve" width="1.749in" height="0.252791in" version="1.1" style="shape-rendering:geometricPrecision; text-rendering:geometricPrecision; image-rendering:optimizeQuality; fill-rule:evenodd; clip-rule:evenodd"
viewBox="0 0 1781 257"
 xmlns:xlink="http://www.w3.org/1999/xlink">
 <defs>
  <style type="text/css">
   <![CDATA[
    .fil0 {fill:#02BAD3}
    .fil1 {fill:#09BAD3}
   ]]>
  </style>
 </defs>
 <g id="Layer_x0020_1">
  <metadata id="CorelCorpID_0Corel-Layer"/>
  <path class="fil0" d="M537 129c0,13 -3,25 -7,37 -5,11 -11,21 -19,29 -8,8 -18,14 -29,19 -12,5 -24,7 -38,7l-70 0 0 -185 70 0c14,0 26,2 38,8 11,4 21,11 29,19 8,8 14,17 19,28 4,12 7,24 7,38zm-35 0c0,-10 -1,-19 -4,-27 -3,-9 -6,-16 -11,-21 -5,-6 -12,-10 -19,-13 -7,-3 -15,-4 -24,-4l-36 0 0 129 36 0c9,0 17,-1 24,-4 7,-3 14,-7 19,-13 5,-5 8,-12 11,-20 3,-9 4,-17 4,-27zm135 64c7,0 14,-1 19,-3 5,-3 9,-6 13,-10 3,-3 6,-8 8,-14 2,-5 3,-13 3,-20l0 -110 34 0 0 110c0,12 -1,22 -5,31 -3,9 -9,17 -16,24 -6,7 -14,13 -23,16 -10,4 -20,6 -33,6 -11,0 -22,-2 -31,-6 -9,-3 -18,-9 -25,-16 -6,-7 -11,-15 -14,-24 -4,-9 -6,-19 -6,-31l0 -110 35 0 0 110c0,7 1,15 3,20 2,6 4,10 8,14 3,4 8,7 13,10 5,2 11,3 17,3zm204 -49c2,3 3,5 4,8 1,4 3,7 4,10 1,-3 2,-6 3,-10 2,-3 3,-6 4,-8l55 -101c1,-3 1,-4 2,-4 1,-1 1,-2 2,-2 1,0 2,-1 3,-1 1,0 3,0 4,0l26 0 0 185 -30 0 0 -119c0,-2 0,-5 0,-8 0,-2 0,-5 1,-8l-56 105c-1,2 -3,4 -5,5 -2,1 -4,2 -7,2l-5 0c-2,0 -5,-1 -7,-2 -2,-1 -3,-3 -4,-5l-57 -105c1,3 1,5 1,8 0,3 0,6 0,8l0 119 -31 0 0 -185 27 0c1,0 3,0 4,0 1,0 2,1 3,1 1,0 1,1 2,2 1,0 2,1 2,4l55 101zm306 77l-26 0c-3,0 -6,-1 -7,-2 -2,-2 -4,-3 -4,-6l-15 -38 -76 0 -13 38c-1,2 -2,4 -4,6 -2,1 -5,2 -7,2l-28 0 72 -185 36 0 72 185zm-119 -70l58 0 -22 -61c-1,-3 -2,-6 -3,-10 -1,-3 -2,-7 -3,-12 -2,5 -3,9 -4,12 -1,4 -2,7 -3,10l-23 61zm236 -81c-1,2 -2,3 -3,4 -1,1 -3,1 -4,1 -2,0 -4,-1 -6,-2 -2,-1 -4,-3 -7,-4 -3,-2 -6,-3 -10,-4 -4,-2 -8,-2 -14,-2 -4,0 -9,0 -13,1 -3,1 -6,3 -9,5 -2,2 -4,4 -5,7 -1,3 -2,6 -2,9 0,5 2,8 4,11 2,4 5,6 9,8 4,2 10,4 15,6 5,1 10,3 15,5 5,1 10,4 15,6 5,2 10,5 14,9 4,4 8,8 10,13 3,5 4,13 4,20 0,9 -2,16 -4,23 -3,7 -8,14 -14,19 -5,5 -12,10 -19,13 -8,3 -17,5 -28,5 -6,0 -11,-1 -17,-2 -6,-1 -11,-2 -16,-5 -5,-2 -10,-4 -14,-8 -5,-3 -10,-6 -13,-10l10 -16c1,-1 2,-2 4,-3 1,-1 2,-1 4,-1 2,0 4,1 7,3 2,1 5,3 8,5 4,2 7,4 12,6 4,2 10,2 17,2 10,0 17,-2 22,-6 6,-5 8,-11 8,-20 0,-5 -1,-9 -3,-12 -3,-4 -6,-6 -10,-8 -4,-2 -8,-4 -13,-5 -6,-2 -11,-3 -16,-5 -6,-2 -11,-4 -16,-6 -5,-2 -9,-5 -13,-9 -4,-4 -7,-8 -10,-14 -2,-6 -3,-14 -3,-22 0,-6 1,-13 4,-19 2,-6 6,-12 11,-17 5,-5 12,-8 19,-12 7,-3 16,-5 26,-5 11,0 21,2 30,5 9,5 16,9 24,15l-10 16zm74 44l8 0c3,0 6,0 8,-1 2,-1 4,-3 5,-5l51 -64c2,-3 4,-5 7,-6 2,-1 5,-2 8,-2l30 0 -61 77c-2,3 -4,5 -6,6 -2,2 -4,3 -7,4 4,1 7,3 9,4 2,2 4,5 6,7l64 87 -31 0c-4,0 -7,-1 -9,-2 -2,-1 -3,-2 -5,-5l-52 -68c-1,-3 -3,-4 -5,-5 -2,-1 -5,-2 -9,-2l-11 0 0 82 -34 0 0 -185 34 0 0 78zm133 89c0,-3 0,-5 1,-7 1,-3 3,-5 4,-6 2,-2 4,-3 6,-4 3,-1 5,-2 8,-2 2,0 6,1 8,2 3,1 5,2 6,4 2,1 3,3 4,6 1,2 2,4 2,7 0,3 -1,5 -2,7 -1,4 -2,6 -4,7 -1,2 -3,3 -6,4 -2,1 -6,2 -8,2 -3,0 -5,-1 -8,-2 -2,-1 -4,-2 -6,-4 -1,-1 -3,-3 -4,-7 -1,-2 -1,-4 -1,-7zm105 18l-35 0 0 -185 35 0 0 185zm205 -92c0,13 -2,25 -7,37 -5,11 -11,21 -19,29 -8,8 -18,14 -29,19 -12,5 -25,7 -38,7l-70 0 0 -185 70 0c13,0 26,2 38,8 11,4 21,11 29,19 8,8 14,17 19,28 5,12 7,24 7,38zm-35 0c0,-10 -1,-19 -4,-27 -3,-9 -7,-16 -11,-21 -5,-6 -12,-10 -19,-13 -7,-3 -15,-4 -24,-4l-36 0 0 129 36 0c9,0 17,-1 24,-4 7,-3 14,-7 19,-13 4,-5 8,-12 11,-20 3,-9 4,-17 4,-27z"/>
  <g id="_194941642784">
   <path class="fil1" d="M166 76c-16,2 -33,-2 -46,-11 -1,-1 -2,-1 -3,-1 -1,0 -2,0 -3,0 -1,1 -2,2 -3,2 0,1 0,2 0,3l0 14 0 27c6,-1 20,-5 33,-12 10,-7 19,-17 22,-22z"/>
   <g>
    <path class="fil1" d="M104 68c-14,-1 -26,10 -26,20 0,9 12,20 26,18l0 -38zm0 0l0 0 0 0z"/>
   </g>
   <g>
    <path class="fil1" d="M88 127c-15,-1 -26,10 -25,19 0,11 11,21 25,19l0 -38zm0 0l0 0 0 0z"/>
   </g>
   <path class="fil1" d="M44 218c-8,-6 -15,-14 -22,-23 -6,-8 -11,-17 -15,-27l0 -1 0 -1 -1 -1c0,-2 -1,-3 -1,-4l-1 -4 -1 -3c0,0 0,-1 0,-2 0,-2 -1,-5 -1,-7 0,-1 -1,-3 -1,-4l0 -4c-1,-2 -1,-5 -1,-8 0,-1 0,-2 0,-4 0,-1 0,-2 0,-3 1,-6 1,-11 2,-16 3,-21 12,-41 27,-57 6,-8 14,-15 22,-21 4,-3 9,-6 13,-8 5,-2 9,-4 14,-6 -9,5 -17,11 -24,18 -7,6 -14,14 -19,22 -12,16 -20,34 -23,54 -1,5 -2,9 -2,14 -1,15 1,29 5,44 3,9 6,18 11,27 6,8 11,17 18,25z"/>
   <path class="fil1" d="M252 153c0,3 -1,6 -1,8 -1,3 -1,5 -2,8 -1,5 -3,10 -5,15 -2,5 -4,10 -7,14 -1,1 -1,2 -2,4l-1 1 -1 2c-1,1 -2,2 -3,3l-2 4c-14,17 -32,30 -53,38 -20,7 -43,9 -64,5 -11,-2 -21,-5 -31,-10 -10,-5 -18,-11 -26,-18 18,11 38,18 58,20 20,3 41,0 60,-7 19,-7 36,-18 50,-34 14,-15 24,-33 30,-53z"/>
   <path class="fil1" d="M255 140c0,-3 0,-5 0,-8 0,-1 0,-2 0,-3 -2,-2 -2,-3 -2,-4 0,-1 0,-3 0,-4l-1 -4 0 -1 0 -2 -1 -4c-2,-10 -5,-20 -9,-29 -5,-9 -10,-17 -16,-25 -3,-4 -6,-7 -9,-11 -2,-1 -4,-4 -5,-6 -1,-1 -2,-1 -3,-2 -1,-1 -2,-2 -3,-2 -2,-2 -4,-4 -6,-5 -1,-1 -1,-1 -2,-2l-5 -2 -1 -1 -2 -1 -3 -2c-1,0 -2,-1 -3,-1 -1,-1 -2,-2 -3,-2 -9,-4 -18,-8 -28,-10 -9,-2 -20,-3 -30,-3 -10,0 -20,1 -30,3 10,-4 20,-7 30,-8 10,-1 22,-1 32,0 1,1 2,1 4,1l4 1 3 1c2,0 3,1 4,1l4 1c0,0 1,0 2,1l2 0c1,1 2,1 3,2l4 1c9,5 19,10 27,17 9,6 16,14 22,24l2 3 1 1c1,1 1,2 1,2l2 3c1,2 2,3 2,4 2,2 3,5 4,7l0 1 1 1 0 2c1,1 1,2 2,3 3,10 7,20 8,31l0 4 0 2 0 2 0 4c0,1 0,2 0,4 0,5 -1,10 -2,15z"/>
   <path class="fil1" d="M82 15l-16 26c0,0 0,0 0,0 0,0 -1,0 -1,0 0,0 0,0 0,0 -1,0 -1,-1 -1,-1 1,-7 1,-11 1,-19l-16 -5c0,0 0,0 -1,-1 0,0 0,0 0,-1 0,0 0,0 1,-1 0,0 0,0 1,0l30 -1c0,0 1,0 1,0 0,0 1,0 1,1 0,0 0,0 0,1 0,0 0,1 0,1z"/>
   <path class="fil1" d="M252 140l-15 -25c0,-1 0,-1 0,-1 0,0 0,-1 0,-1 0,0 1,0 1,0 0,0 0,0 1,0 5,4 9,6 17,10l12 -12c0,0 1,0 1,0 0,0 1,0 1,0 0,0 1,1 1,1 0,1 0,1 -1,1l-13 27c0,1 0,1 -1,1 0,0 0,0 -1,1 0,0 -2,-1 -2,-1 0,0 0,0 -1,-1z"/>
   <path class="fil1" d="M53 222l29 3c1,0 1,1 1,1 0,0 0,0 0,0 0,1 0,1 0,1 0,0 0,1 0,1 -7,2 -11,4 -18,7 1,5 1,11 2,16 0,1 0,1 0,1 0,1 -1,1 -1,1 0,0 -1,0 -1,0 0,0 -1,0 -1,-1l-14 -27c0,0 0,0 0,-1 0,0 0,0 1,-1 0,0 0,0 0,0 1,-1 1,-1 2,-1z"/>
   <path class="fil1" d="M94 173l0 -48c0,-2 1,-4 3,-6 2,-1 4,-2 6,-2 14,0 27,-4 40,-10 12,-6 22,-17 30,-28 1,1 8,8 15,19 -3,5 -8,11 -14,16 -11,10 -28,14 -35,15 7,0 25,-3 36,-10 6,-3 12,-7 17,-12 3,6 6,14 6,22 -4,3 -6,5 -9,7 -12,8 -30,10 -36,10 6,1 24,0 37,-5 2,-1 4,-2 8,-3 0,0 0,0 0,0 -2,3 -3,11 -7,22 -9,4 -19,5 -23,6 4,0 13,-1 21,-2 -4,7 -10,15 -19,21 -22,13 -53,8 -76,-12z"/>
  </g>
 </g>
</svg>
