<?xml version="1.0" encoding="UTF-8"?>
<!DOCTYPE svg PUBLIC "-//W3C//DTD SVG 1.1//EN" "http://www.w3.org/Graphics/SVG/1.1/DTD/svg11.dtd">
<!-- Creator: CorelDRAW X8 -->
<svg xmlns="http://www.w3.org/2000/svg" xml:space="preserve" width="8.51341in" height="11.455in" version="1.1" style="shape-rendering:geometricPrecision; text-rendering:geometricPrecision; image-rendering:optimizeQuality; fill-rule:evenodd; clip-rule:evenodd"
viewBox="0 0 2754 3706"
 xmlns:xlink="http://www.w3.org/1999/xlink">
 <defs>
  <style type="text/css">
   <![CDATA[
    .str0 {stroke:#173854;stroke-width:153.679}
    .fil1 {fill:#173854}
    .fil0 {fill:white}
   ]]>
  </style>
 </defs>
 <g id="Layer_x0020_1">
  <metadata id="CorelCorpID_0Corel-Layer"/>
  <g id="_776720250912">
   <g id="Home">
   </g>
   <g id="Camera">
   </g>
   <g id="Mail">
   </g>
   <g id="Print">
   </g>
   <g id="Save">
   </g>
   <g id="Folder">
   </g>
   <g id="Search">
   </g>
   <g id="User">
   </g>
   <g id="Pin">
   </g>
   <g id="Calendar">
   </g>
   <g id="Gallery">
   </g>
   <g id="time">
   </g>
   <g id="g16">
    <path id="path14" class="fil0 str0" d="M2677 1377c0,686 -1158,2140 -1205,2205 -24,29 -59,47 -95,47 -35,0 -71,-18 -94,-47 -48,-65 -1206,-1519 -1206,-2205 0,-715 585,-1300 1300,-1300 715,0 1300,585 1300,1300l0 0z"/>
   </g>
   <g id="g20">
    <path id="path18" class="fil1" d="M1968 1318c0,325 -266,591 -591,591 -325,0 -591,-266 -591,-591 0,-325 266,-591 591,-591 325,0 591,266 591,591z"/>
   </g>
   <g id="Setting">
   </g>
   <g id="Player">
   </g>
   <g id="Lock">
   </g>
   <g id="Trash_Can">
   </g>
   <g id="Notification">
   </g>
   <g id="Record">
   </g>
   <g id="Shopping_Bag">
   </g>
  </g>
 </g>
</svg>
