<?xml version="1.0" encoding="UTF-8"?>
<!DOCTYPE svg PUBLIC "-//W3C//DTD SVG 1.1//EN" "http://www.w3.org/Graphics/SVG/1.1/DTD/svg11.dtd">
<!-- Creator: CorelDRAW X8 -->
<svg xmlns="http://www.w3.org/2000/svg" xml:space="preserve" width="8.51391in" height="11.4554in" version="1.1" style="shape-rendering:geometricPrecision; text-rendering:geometricPrecision; image-rendering:optimizeQuality; fill-rule:evenodd; clip-rule:evenodd"
viewBox="0 0 1490 2005"
 xmlns:xlink="http://www.w3.org/1999/xlink"
 xmlns:dc="http://purl.org/dc/elements/1.1/"
 xmlns:cc="http://creativecommons.org/ns#"
 xmlns:rdf="http://www.w3.org/1999/02/22-rdf-syntax-ns#"
 xmlns:svg="http://www.w3.org/2000/svg"
 xmlns:sodipodi="http://sodipodi.sourceforge.net/DTD/sodipodi-0.dtd"
 xmlns:inkscape="http://www.inkscape.org/namespaces/inkscape"
 enable-background="new 0 0 64 64"
 sodipodi:docname="pin_location.svg"
 inkscape:version="1.0.2 (e86c870879, 2021-01-15)">
 <defs>
  <style type="text/css">
   <![CDATA[
    .str0 {stroke:#1F79C9;stroke-width:83.1326}
    .fil1 {fill:#207AC9}
    .fil0 {fill:white}
   ]]>
  </style>
 </defs>
 <g id="Layer_x0020_1">
  <metadata id="CorelCorpID_0Corel-Layer"/>
  <g id="_776720251072">
   <sodipodi:namedview pagecolor="#ffffff" bordercolor="#666666" borderopacity="1" objecttolerance="10" gridtolerance="10" guidetolerance="10" inkscape:pageopacity="0" inkscape:pageshadow="2" inkscape:window-width="1366" inkscape:window-height="713" id="namedview32" showgrid="false" inkscape:zoom="4.2890625" inkscape:cx="-9.9363367" inkscape:cy="39.143022" inkscape:window-x="0" inkscape:window-y="27" inkscape:window-maximized="1" inkscape:current-layer="svg30"/>
   <g id="Home">
   </g>
   <g id="Camera">
   </g>
   <g id="Mail">
   </g>
   <g id="Print">
   </g>
   <g id="Save">
   </g>
   <g id="Folder">
   </g>
   <g id="Search">
   </g>
   <g id="User">
   </g>
   <g id="Pin">
   </g>
   <g id="Calendar">
   </g>
   <g id="Gallery">
   </g>
   <g id="time">
   </g>
   <g id="g16">
    <path id="path14" class="fil0 str0" d="M1448 745c0,371 -626,1157 -652,1193 -13,16 -32,25 -51,25 -19,0 -38,-9 -51,-25 -26,-36 -652,-822 -652,-1193 0,-387 316,-703 703,-703 387,0 703,316 703,703z"/>
   </g>
   <g id="g20">
    <path id="path18" class="fil1" d="M1065 713c0,176 -144,320 -320,320 -176,0 -320,-144 -320,-320 0,-176 144,-320 320,-320 176,0 320,144 320,320z"/>
   </g>
   <g id="Setting">
   </g>
   <g id="Player">
   </g>
   <g id="Lock">
   </g>
   <g id="Trash_Can">
   </g>
   <g id="Notification">
   </g>
   <g id="Record">
   </g>
   <g id="Shopping_Bag">
   </g>
  </g>
 </g>
</svg>
